<svg width="463" height="329" viewBox="0 0 463 329" fill="none" xmlns="http://www.w3.org/2000/svg">
<path d="M32.939 327.307C32.939 327.307 -24.3157 266.901 12.1455 195.88C48.6067 124.858 97.5363 160.597 95.2041 77.9195C92.872 -4.75824 207.777 -11.8243 244.348 12.1615C280.919 36.1474 284.147 51.5955 359.661 42.0704C435.175 32.5452 470.298 102.914 445.479 151.742C416.491 208.776 503.81 214.302 437.46 327.44L32.939 327.307Z" fill="#B8DEFF"/>
<g opacity="0.4">
<path d="M428.585 115.006C428.586 118.6 428.265 122.186 427.623 125.722C426.132 133.907 422.929 141.685 418.225 148.55C407.503 164.221 389.474 174.505 369.04 174.505C344.734 174.505 323.831 159.956 314.577 139.094C313.346 136.324 312.332 133.463 311.545 130.537C309.067 121.327 308.826 111.659 310.841 102.338C310.841 102.292 310.862 102.246 310.872 102.199C314.028 87.9576 322.297 75.3648 334.115 66.8018C335.338 65.9142 336.601 65.0727 337.893 64.2793C347.258 58.519 358.043 55.4782 369.04 55.4976C370.555 55.4976 372.055 55.554 373.541 55.6667C384.135 56.4471 394.322 60.0653 403.032 66.1409C409.561 70.6785 415.117 76.4726 419.375 83.1836C420.286 84.6232 421.137 86.1019 421.928 87.6196C423.845 91.3054 425.367 95.1834 426.468 99.1889C427.88 104.343 428.592 109.663 428.585 115.006Z" fill="#D7E5FF"/>
<path d="M348.808 88.3708C346.431 92.1305 349.8 98.6606 342.671 96.8797C335.542 95.0988 331.185 94.3072 330.791 98.2629C330.397 102.219 336.138 102.222 336.138 106.372C336.138 110.522 333.561 111.901 329.601 109.928C325.64 107.955 324.5 105.083 319.897 106.864C315.294 108.645 312.62 107.458 311.58 103.896C311.421 103.339 311.171 102.812 310.839 102.338C310.839 102.292 310.86 102.246 310.87 102.199C314.026 87.9576 322.295 75.3648 334.113 66.8018C335.336 65.9142 336.599 65.0727 337.891 64.2793C339.746 64.3485 341.965 65.0478 343.851 67.3897C348.01 72.5365 350.773 69.9641 349.792 75.8986C348.812 81.8331 350.386 82.6227 353.751 82.4305C357.116 82.2384 361.08 82.2384 361.474 84.8051C361.868 87.3718 351.184 84.6111 348.808 88.3708Z" fill="#AEC3FF"/>
<path d="M373.462 123.986C373.462 123.986 368.215 125.668 366.829 122.007C365.443 118.345 367.021 117.555 362.372 116.468C357.723 115.381 357.323 112.213 354.353 112.608C351.382 113.004 352.869 114.191 349.402 116.764C345.935 119.336 342.769 118.149 342.865 122.898C342.961 127.647 348.112 128.389 349.15 131.505C350.188 134.621 348.408 135.956 350.636 138.331C352.865 140.705 357.021 139.676 355.091 142.932C353.161 146.189 350.19 148.719 351.677 153.766C353.163 158.813 352.121 159.108 354.647 162.668C357.173 166.228 362.072 167.417 362.814 165.043C363.557 162.668 359.398 159.552 360.736 157.178C362.074 154.803 364.299 156.436 365.191 152.874C366.083 149.312 369.696 149.312 369.997 146.84C370.299 144.367 365.641 140.608 367.419 139.032C369.198 137.457 372.764 141.9 375.537 137.943C378.309 133.985 376.429 130.821 379.299 127.061C382.17 123.302 375.442 121.809 373.462 123.986Z" fill="#AEC3FF"/>
<path d="M428.585 115.006C428.586 118.6 428.265 122.186 427.623 125.722C426.132 133.907 422.929 141.685 418.225 148.55C416.675 149.083 414.984 149.038 413.465 148.423C406.038 145.455 411.532 137.441 414.503 133.438C417.473 129.434 409.9 131.211 404.405 127.501C398.91 123.791 404.999 113.849 399.354 115.48C393.71 117.112 386.88 119.192 383.612 113.7C380.343 108.207 386.582 107.319 383.762 102.718C380.941 98.1169 385.394 95.4465 391.039 95.0027C396.684 94.5589 395.94 90.5494 402.919 89.9558C409.898 89.3621 409.75 98.2668 417.474 97.6731C425.197 97.0795 424.849 98.8604 424.849 98.8604C425.405 98.8472 425.958 98.9629 426.462 99.1985C427.875 104.349 428.589 109.666 428.585 115.006Z" fill="#AEC3FF"/>
<path d="M421.921 87.6254C415.499 90.7473 412.921 82.2557 407.433 84.809C401.898 87.3814 402.867 82.4344 398.512 79.2683C394.157 76.1022 385.438 81.8408 385.838 76.8937C386.238 71.9467 392.76 73.3319 394.156 69.3762C395.551 65.4205 401.879 66.4118 401.879 66.4118C402.249 66.2712 402.638 66.1832 403.032 66.1505C409.561 70.6881 415.117 76.4822 419.375 83.1933C420.281 84.6303 421.13 86.1077 421.921 87.6254Z" fill="#AEC3FF"/>
<path d="M367.819 70.5615C367.819 70.5615 371.184 65.7087 365.839 64.2774C360.494 62.8461 360.59 64.7193 356.433 64.2774C352.276 63.8355 350.64 67.0496 353.759 70.5615C356.877 74.0734 359.402 80.8148 362.218 77.2222C365.035 73.6297 364.502 70.9093 367.819 70.5615Z" fill="#AEC3FF"/>
</g>
<path d="M390.397 105.988V291.189C390.397 294.43 388.055 297.058 385.169 297.058H117.747C114.863 297.058 112.52 294.43 112.52 291.189V105.988C112.52 102.745 114.861 100.119 117.747 100.119H385.169C388.055 100.109 390.397 102.735 390.397 105.988Z" fill="#AEC3FF"/>
<path d="M390.397 105.333V119.317H112.52V105.333C112.52 104.647 112.655 103.968 112.917 103.334C113.18 102.7 113.565 102.124 114.051 101.639C114.536 101.154 115.112 100.769 115.747 100.507C116.381 100.244 117.061 100.109 117.747 100.109H385.169C386.556 100.109 387.885 100.66 388.866 101.639C389.846 102.619 390.397 103.947 390.397 105.333Z" fill="#739AF0"/>
<path d="M121.02 109.713C121.02 109.232 121.162 108.762 121.43 108.362C121.697 107.962 122.077 107.65 122.522 107.466C122.967 107.282 123.456 107.234 123.928 107.328C124.401 107.422 124.834 107.653 125.175 107.993C125.515 108.333 125.747 108.767 125.841 109.239C125.935 109.71 125.887 110.199 125.702 110.644C125.518 111.088 125.206 111.468 124.806 111.735C124.406 112.003 123.935 112.145 123.454 112.145C123.134 112.146 122.817 112.083 122.522 111.961C122.226 111.839 121.958 111.659 121.732 111.434C121.506 111.208 121.327 110.939 121.204 110.644C121.082 110.349 121.019 110.033 121.02 109.713Z" fill="#DFEBFD"/>
<path d="M130.61 109.713C130.61 109.232 130.752 108.762 131.02 108.362C131.287 107.962 131.667 107.651 132.111 107.466C132.556 107.282 133.045 107.234 133.517 107.327C133.989 107.421 134.423 107.652 134.764 107.992C135.104 108.332 135.336 108.765 135.431 109.236C135.525 109.708 135.477 110.197 135.294 110.641C135.11 111.086 134.799 111.466 134.399 111.734C133.999 112.001 133.529 112.145 133.048 112.145C132.728 112.146 132.411 112.084 132.115 111.962C131.819 111.84 131.55 111.661 131.323 111.435C131.097 111.209 130.917 110.941 130.795 110.645C130.672 110.35 130.609 110.033 130.61 109.713Z" fill="#DFEBFD"/>
<path d="M140.44 109.713C140.44 109.232 140.583 108.762 140.851 108.362C141.118 107.962 141.498 107.65 141.943 107.466C142.388 107.282 142.877 107.234 143.349 107.328C143.821 107.422 144.255 107.653 144.596 107.993C144.936 108.333 145.168 108.767 145.262 109.239C145.356 109.71 145.307 110.199 145.123 110.644C144.939 111.088 144.627 111.468 144.227 111.735C143.826 112.003 143.356 112.145 142.874 112.145C142.555 112.146 142.238 112.083 141.943 111.961C141.647 111.839 141.379 111.659 141.153 111.434C140.927 111.208 140.747 110.939 140.625 110.644C140.503 110.349 140.44 110.033 140.44 109.713Z" fill="#DFEBFD"/>
<path opacity="0.5" d="M291.346 239.396H262.039V268.681H291.346V239.396Z" fill="#EBF3FA"/>
<path d="M264.24 265.336L272.896 249.742L279.262 258.416L282.44 254.944L289.175 265.336H264.24Z" fill="#739AF0"/>
<path d="M277.022 247.504C277.022 247.061 277.153 246.628 277.399 246.26C277.645 245.892 277.995 245.605 278.404 245.436C278.814 245.266 279.264 245.222 279.699 245.308C280.133 245.395 280.532 245.608 280.845 245.921C281.159 246.234 281.372 246.633 281.458 247.067C281.545 247.501 281.501 247.951 281.331 248.36C281.161 248.769 280.874 249.119 280.506 249.365C280.138 249.61 279.705 249.742 279.262 249.742C278.967 249.742 278.676 249.684 278.404 249.571C278.133 249.459 277.886 249.294 277.678 249.086C277.47 248.878 277.305 248.632 277.192 248.36C277.08 248.089 277.022 247.797 277.022 247.504Z" fill="#739AF0"/>
<path opacity="0.5" d="M335.111 185.79H262.039V228.111H335.111V185.79Z" fill="#EBF3FA"/>
<path d="M290.328 196.108V217.793L306.819 206.951L290.328 196.108Z" fill="#739AF0"/>
<path d="M368.542 154.281C368.549 158.863 366.758 163.266 363.555 166.545C362 168.154 360.138 169.434 358.079 170.31C356.021 171.187 353.807 171.641 351.569 171.646H153.826C143.734 171.646 135.476 163.831 135.476 154.281C135.476 149.505 137.539 145.163 140.859 142.018C144.369 138.722 149.01 136.897 153.826 136.919H351.569C360.905 136.919 368.542 144.728 368.542 154.281Z" fill="#EBF3FA"/>
<path d="M368.542 154.281C368.549 158.863 366.758 163.266 363.555 166.545C362 168.154 360.138 169.434 358.079 170.31C356.021 171.187 353.807 171.641 351.569 171.646H315.786V136.919H351.569C360.905 136.919 368.542 144.728 368.542 154.281Z" fill="#F99746"/>
<path d="M345.895 160.593C344.03 160.596 342.212 160.011 340.699 158.921C339.187 157.831 338.057 156.292 337.471 154.523C336.885 152.754 336.872 150.845 337.435 149.069C337.998 147.292 339.108 145.738 340.606 144.629C341.731 143.796 343.038 143.242 344.42 143.012C345.801 142.782 347.217 142.883 348.552 143.306C349.887 143.728 351.102 144.461 352.099 145.444C353.095 146.428 353.844 147.633 354.284 148.961C354.725 150.289 354.843 151.703 354.631 153.086C354.418 154.469 353.88 155.782 353.062 156.917C352.243 158.053 351.167 158.978 349.921 159.617C348.675 160.256 347.295 160.59 345.895 160.593ZM341.473 145.8C340.297 146.671 339.406 147.87 338.913 149.247C338.419 150.623 338.345 152.115 338.7 153.534C339.055 154.952 339.823 156.234 340.907 157.216C341.991 158.199 343.342 158.838 344.79 159.053C346.237 159.268 347.716 159.049 349.039 158.424C350.362 157.799 351.47 156.796 352.222 155.542C352.975 154.288 353.339 152.839 353.267 151.379C353.196 149.918 352.692 148.512 351.821 147.337C350.651 145.765 348.904 144.72 346.965 144.432C345.025 144.144 343.05 144.636 341.473 145.8Z" fill="white"/>
<path d="M339.791 157.158L338.922 155.986L329.207 163.172L330.075 164.344L339.791 157.158Z" fill="white"/>
<path d="M326.253 166.257C326.151 166.12 326.077 165.964 326.036 165.798C325.994 165.632 325.986 165.459 326.011 165.29C326.036 165.121 326.094 164.959 326.182 164.812C326.271 164.665 326.387 164.538 326.524 164.436L332.246 160.209C332.384 160.108 332.54 160.034 332.706 159.993C332.872 159.952 333.044 159.943 333.213 159.969C333.382 159.994 333.545 160.052 333.691 160.141C333.838 160.229 333.965 160.345 334.067 160.482C334.169 160.619 334.243 160.775 334.284 160.941C334.326 161.107 334.334 161.279 334.309 161.448C334.284 161.617 334.226 161.779 334.138 161.926C334.05 162.072 333.933 162.2 333.796 162.301L328.074 166.528C327.937 166.63 327.781 166.703 327.615 166.745C327.449 166.786 327.277 166.795 327.107 166.769C326.938 166.744 326.776 166.686 326.629 166.598C326.483 166.51 326.355 166.394 326.253 166.257Z" fill="white"/>
<path d="M193.963 130.348C193.792 130.537 193.678 130.771 193.637 131.022C193.595 131.273 193.626 131.531 193.727 131.764C194.069 132.708 195.196 133.762 196.507 134.813C196.674 134.95 196.822 135.073 196.953 135.186L197.053 135.276L197.13 135.345C198.351 136.471 197.899 136.729 200.087 139.015C202.586 141.618 204.317 141.666 204.803 141.428C205.218 141.236 204.376 139.845 203.442 138.294C203.398 138.22 203.353 138.143 203.305 138.068C203.182 137.86 203.059 137.651 202.934 137.443C201.84 135.576 202.123 134.7 202.382 131.922C202.594 129.663 205.903 119.306 205.903 119.306L201.11 118.476C201.11 118.476 199.662 126.725 198.07 127.993C197.218 128.671 196.265 128.679 195.447 129.18L195.276 129.288C194.793 129.581 194.352 129.938 193.963 130.348Z" fill="#FFB27D"/>
<path d="M193.963 130.348C193.792 130.537 193.678 130.771 193.637 131.022C193.595 131.273 193.626 131.531 193.727 131.764C194.144 132.708 195.244 133.755 196.511 134.804C196.676 134.942 196.822 135.067 196.953 135.188L197.053 135.278L197.13 135.347C198.351 136.473 197.899 136.731 200.087 139.017C202.586 141.62 204.317 141.668 204.803 141.43C205.218 141.238 204.376 139.847 203.442 138.296C201.691 137.612 200.152 136.477 198.981 135.007C197.528 133.155 196.543 130.794 195.555 129.344L195.272 129.292C194.791 129.584 194.351 129.94 193.963 130.348Z" fill="#233862"/>
<path d="M232.651 127.369C232.947 128.848 235.058 128.602 237.417 128.028C239.776 127.453 239.215 128.137 242.572 127.766C245.929 127.396 246.946 126.147 247.048 125.653C247.14 125.211 245.481 125.054 243.702 124.848L243.029 124.767C241.02 124.516 239.549 123.219 237.727 122.155C235.996 121.148 233.42 117.042 233.42 117.042L228.817 117.406C228.817 117.406 231.232 121.071 232.164 122.666C232.714 123.603 232.685 124.844 232.616 125.801C232.558 126.323 232.57 126.85 232.651 127.369Z" fill="#FFB27D"/>
<path d="M237.417 128.028C239.774 127.451 239.215 128.137 242.572 127.766C245.929 127.396 246.946 126.147 247.048 125.653C247.14 125.211 245.481 125.054 243.702 124.848L243.685 124.883C242.247 125.804 240.586 126.32 238.878 126.374C236.6 126.429 234.189 125.776 232.616 125.797C232.558 126.321 232.569 126.85 232.651 127.371C232.947 128.85 235.058 128.602 237.417 128.028Z" fill="#233862"/>
<path d="M215.02 97.9498L210.723 109.519L205.089 124.623C204.087 124.697 203.078 124.605 202.106 124.351C200.76 123.966 199.222 122.944 199.222 122.944C199.222 122.944 200.787 106.724 203.699 97.4138C204.445 95.0238 205.284 93.0912 206.199 92.0018C210.723 86.6783 215.02 97.9498 215.02 97.9498Z" fill="#F4904D"/>
<path d="M210.652 79.5738C208.202 78.7822 201.807 79.5584 194.886 80.8091C193.95 80.9774 192.985 80.8579 192.118 80.4665C191.251 80.0752 190.523 79.4303 190.031 78.617L172.585 77.2491C172.585 77.2491 166.817 90.0038 169.972 98.1342C170.436 99.3292 171.451 100.075 173.022 100.101C173.022 100.101 183.563 100.119 186.936 100.121C195.611 100.121 205.299 94.1651 206.547 93.9172C208.598 93.508 209.415 97.6059 211.465 101.911C213.515 106.217 230.736 120.973 230.736 120.973C230.736 120.973 233.383 121 234.477 120.589C235.654 120.147 236.085 119.575 236.085 119.575C236.085 119.575 217.008 81.6256 210.652 79.5738Z" fill="#FFA561"/>
<path d="M188.187 27.4235C187.181 26.8253 186.026 26.5249 184.855 26.5571C184.317 26.5706 183.779 26.5378 183.246 26.4591C176.588 25.4812 172.575 35.1428 172.339 38.063C171.906 43.425 169.07 44.2415 165.071 47.5978C157.058 54.3219 159.403 62.1507 163.783 65.0593C166.411 66.8037 171.043 65.0593 171.043 65.0593C171.108 65.1054 183.715 58.024 189.929 54.6081C199.243 53.2902 191.929 29.6521 188.187 27.4235Z" fill="#233862"/>
<path d="M184.723 51.6975C184.75 51.7148 181.666 52.7676 179.603 51.8532C177.665 50.9963 176.196 47.8052 176.225 47.8052C177.107 47.7649 178.076 46.9926 178.824 41.9341L179.199 42.0705L185.517 44.3433C185.517 44.3433 185.059 46.3701 184.761 48.299C184.511 49.9166 184.382 51.4689 184.723 51.6975Z" fill="#FFB27D"/>
<path d="M185.517 44.3433C185.517 44.3433 185.265 45.4365 184.896 47.4787C181.268 46.8255 179.705 44.0302 179.199 42.0706L185.517 44.3433Z" fill="#ED975D"/>
<path d="M186.457 46.3548C186.457 46.3548 177.805 45.2021 178.62 39.8228C179.436 34.4435 178.855 30.6895 184.409 31.2044C189.964 31.7193 190.727 33.9305 190.891 35.7883C191.054 37.6461 188.728 46.5181 186.457 46.3548Z" fill="#FFB27D"/>
<path d="M190.577 32.8451C190.577 32.8451 185.042 37.6077 181.277 37.9919C177.513 38.3761 176.086 37.1658 176.086 37.1658C177.588 35.8253 178.798 34.1905 179.641 32.3629C179.833 31.9323 180.137 31.5607 180.52 31.2864C180.904 31.0122 181.354 30.8453 181.824 30.8029C184.513 30.5666 189.61 30.4628 190.577 32.8451Z" fill="#233862"/>
<path d="M187.118 32.4167C187.118 32.4167 188.968 34.2053 189.551 35.5328C190.114 36.8142 190.281 39.8747 189.833 41.0908C189.833 41.0908 192.717 35.4886 191.087 32.7644C189.356 29.8769 187.118 32.4167 187.118 32.4167Z" fill="#233862"/>
<path d="M191.998 64.4253C191.731 81.908 191.921 78.2578 190.006 79.9157C189.545 80.3153 188.249 80.5536 186.546 80.665C181.179 81.0185 171.741 80.1328 171.389 79.1415C170.153 75.7122 171.026 74.6479 169.995 69.3973C169.888 68.8402 169.755 68.235 169.599 67.578C168.74 63.9719 167.902 62.7443 170.959 56.9539C173.731 51.7091 176.609 47.4518 176.869 47.6054C184.175 51.9435 184.765 48.299 184.765 48.299C184.765 48.299 192.129 55.8972 191.998 64.4253Z" fill="#AFCDFB"/>
<path d="M210.723 109.519L205.089 124.623C204.087 124.697 203.078 124.605 202.106 124.351C200.76 123.966 199.222 122.944 199.222 122.944C199.222 122.944 200.787 106.724 203.699 97.4138L210.723 109.519Z" fill="#FFA561"/>
<path d="M184.767 48.299C184.767 48.299 192.287 49.5747 193.169 52.8099C194.052 56.0452 196.951 75.6834 196.951 75.6834C196.951 75.6834 194.836 77.7525 193.065 75.987C191.294 74.2214 187.513 57.6129 187.513 57.6129L184.767 48.299Z" fill="#AFCDFB"/>
<path d="M186.542 80.665C181.176 81.0185 171.737 80.1329 171.385 79.1415C170.149 75.7122 171.022 74.6479 169.991 69.3973L172.583 62.1161C172.583 62.1161 172.153 70.2254 174.544 72.3598C176.936 74.4942 184.35 76.4807 185.503 78.2635C186.065 79.1185 186.434 79.9772 186.542 80.665Z" fill="#95B3EF"/>
<path d="M180.395 77.253C180.395 77.253 185.69 76.0772 186.547 76.546C187.405 77.0148 189.487 78.7265 189.749 79.3221C190.01 79.9177 187.847 78.8687 187.143 78.6804C186.688 78.5575 185.49 78.9744 184.896 79.1723C182.396 80.0022 180.858 79.5738 180.858 79.5738L180.395 77.253Z" fill="#FFB27D"/>
<path d="M176.859 47.6016C176.859 47.6016 169.745 48.0358 167.29 51.4651C163.829 56.2911 156.946 76.863 160.882 79.6084C165.318 82.6995 181.07 80.4229 181.07 80.4229C181.07 80.4229 181.595 77.9754 180.866 76.7919C180.137 75.6085 168.288 73.6892 167.742 73.1417C167.196 72.5942 174.583 62.4869 174.583 60.8462C174.583 59.2055 176.859 47.6016 176.859 47.6016Z" fill="#AFCDFB"/>
<path d="M186.799 78.0176C186.799 78.0176 187.907 79.4489 188.272 79.6199C188.455 79.7193 188.663 79.7634 188.87 79.7467L188.122 78.4019L186.799 78.0176Z" fill="#FFB27D"/>
<path d="M186.544 76.546L189.766 78.1118C189.702 78.1896 189.62 78.2495 189.526 78.2855C189.432 78.3216 189.331 78.3326 189.231 78.3173C188.833 78.3001 187.832 77.9331 187.832 77.9331L186.544 76.546Z" fill="#FFB27D"/>
<path d="M214.08 80.2347L180.393 80.2231V80.9647L213.782 80.9762L214.08 80.2347Z" fill="#233862"/>
<path d="M188.27 80.9686L213.782 80.9762L221.461 61.9124L195.992 61.9028L188.27 80.9686Z" fill="#233862"/>
<path d="M207.345 71.4414C207.537 70.771 207.153 70.2273 206.48 70.2273C206.127 70.2469 205.788 70.3734 205.508 70.5899C205.229 70.8064 205.022 71.1027 204.915 71.4395C204.722 72.11 205.107 72.6537 205.782 72.6537C206.135 72.6339 206.473 72.5074 206.752 72.2909C207.031 72.0744 207.238 71.7781 207.345 71.4414Z" fill="white"/>
<path d="M189.914 189.745H143.855C142.896 189.745 142.119 190.522 142.119 191.48V192.21C142.119 193.168 142.896 193.945 143.855 193.945H189.914C190.873 193.945 191.65 193.168 191.65 192.21V191.48C191.65 190.522 190.873 189.745 189.914 189.745Z" fill="#F99746"/>
<path d="M166.279 208.387H143.553C143.173 208.387 142.808 208.236 142.539 207.967C142.27 207.698 142.119 207.333 142.119 206.953C142.119 206.573 142.27 206.209 142.539 205.94C142.808 205.671 143.173 205.52 143.553 205.52H166.279C166.467 205.52 166.654 205.557 166.828 205.629C167.002 205.701 167.16 205.807 167.293 205.94C167.426 206.073 167.532 206.231 167.604 206.405C167.676 206.579 167.713 206.765 167.713 206.953C167.713 207.142 167.676 207.328 167.604 207.502C167.532 207.676 167.426 207.834 167.293 207.967C167.16 208.1 167.002 208.205 166.828 208.277C166.654 208.349 166.467 208.387 166.279 208.387Z" fill="#739AF0"/>
<path d="M183.681 199.509H143.453C142.716 199.509 142.119 200.106 142.119 200.842V201.042C142.119 201.778 142.716 202.375 143.453 202.375H183.681C184.418 202.375 185.015 201.778 185.015 201.042V200.842C185.015 200.106 184.418 199.509 183.681 199.509Z" fill="#739AF0"/>
<path d="M227.692 199.509H190.216C189.503 199.509 188.926 200.086 188.926 200.798V201.086C188.926 201.798 189.503 202.375 190.216 202.375H227.692C228.405 202.375 228.982 201.798 228.982 201.086V200.798C228.982 200.086 228.405 199.509 227.692 199.509Z" fill="#739AF0"/>
<path d="M194.624 208.387H171.899C171.518 208.387 171.153 208.236 170.884 207.967C170.615 207.698 170.464 207.333 170.464 206.953C170.464 206.573 170.615 206.209 170.884 205.94C171.153 205.671 171.518 205.52 171.899 205.52H194.624C195.005 205.52 195.37 205.671 195.639 205.94C195.908 206.209 196.059 206.573 196.059 206.953C196.059 207.142 196.022 207.328 195.95 207.502C195.877 207.676 195.772 207.834 195.639 207.967C195.505 208.1 195.347 208.205 195.173 208.277C194.999 208.349 194.813 208.387 194.624 208.387Z" fill="#739AF0"/>
<path d="M246.002 189.745H199.943C198.984 189.745 198.206 190.522 198.206 191.48V192.21C198.206 193.168 198.984 193.945 199.943 193.945H246.002C246.961 193.945 247.738 193.168 247.738 192.21V191.48C247.738 190.522 246.961 189.745 246.002 189.745Z" fill="#F99746"/>
<path d="M189.914 264.929H143.855C142.896 264.929 142.119 265.705 142.119 266.663V267.393C142.119 268.352 142.896 269.128 143.855 269.128H189.914C190.873 269.128 191.65 268.352 191.65 267.393V266.663C191.65 265.705 190.873 264.929 189.914 264.929Z" fill="#F99746"/>
<path d="M166.279 283.568H143.553C143.173 283.568 142.808 283.417 142.539 283.148C142.27 282.879 142.119 282.515 142.119 282.135C142.119 281.946 142.156 281.76 142.228 281.586C142.3 281.412 142.406 281.254 142.539 281.121C142.672 280.988 142.83 280.883 143.004 280.811C143.178 280.738 143.365 280.701 143.553 280.701H166.279C166.467 280.701 166.654 280.738 166.828 280.811C167.002 280.883 167.16 280.988 167.293 281.121C167.426 281.254 167.532 281.412 167.604 281.586C167.676 281.76 167.713 281.946 167.713 282.135C167.713 282.323 167.676 282.509 167.604 282.683C167.532 282.857 167.426 283.015 167.293 283.148C167.16 283.281 167.002 283.387 166.828 283.459C166.654 283.531 166.467 283.568 166.279 283.568Z" fill="#739AF0"/>
<path d="M183.681 274.692H143.453C142.716 274.692 142.119 275.289 142.119 276.025V276.225C142.119 276.961 142.716 277.558 143.453 277.558H183.681C184.418 277.558 185.015 276.961 185.015 276.225V276.025C185.015 275.289 184.418 274.692 183.681 274.692Z" fill="#739AF0"/>
<path d="M227.692 274.692H190.216C189.503 274.692 188.926 275.269 188.926 275.981V276.269C188.926 276.981 189.503 277.558 190.216 277.558H227.692C228.405 277.558 228.982 276.981 228.982 276.269V275.981C228.982 275.269 228.405 274.692 227.692 274.692Z" fill="#739AF0"/>
<path d="M194.624 283.568H171.899C171.518 283.568 171.153 283.417 170.884 283.148C170.615 282.879 170.464 282.515 170.464 282.135C170.464 281.946 170.501 281.76 170.574 281.586C170.646 281.412 170.751 281.254 170.884 281.121C171.018 280.988 171.176 280.883 171.35 280.811C171.524 280.738 171.71 280.701 171.899 280.701H194.624C194.813 280.701 194.999 280.738 195.173 280.811C195.347 280.883 195.505 280.988 195.639 281.121C195.772 281.254 195.877 281.412 195.95 281.586C196.022 281.76 196.059 281.946 196.059 282.135C196.059 282.323 196.022 282.509 195.95 282.683C195.877 282.857 195.772 283.015 195.639 283.148C195.505 283.281 195.347 283.387 195.173 283.459C194.999 283.531 194.813 283.568 194.624 283.568Z" fill="#739AF0"/>
<path d="M246.002 264.929H199.943C198.984 264.929 198.206 265.705 198.206 266.663V267.393C198.206 268.352 198.984 269.128 199.943 269.128H246.002C246.961 269.128 247.738 268.352 247.738 267.393V266.663C247.738 265.705 246.961 264.929 246.002 264.929Z" fill="#F99746"/>
<path d="M189.914 227.337H143.855C142.896 227.337 142.119 228.114 142.119 229.072V229.802C142.119 230.76 142.896 231.537 143.855 231.537H189.914C190.873 231.537 191.65 230.76 191.65 229.802V229.072C191.65 228.114 190.873 227.337 189.914 227.337Z" fill="#F99746"/>
<path d="M166.279 245.976H143.553C143.173 245.976 142.808 245.825 142.539 245.556C142.27 245.288 142.119 244.923 142.119 244.543C142.119 244.163 142.27 243.798 142.539 243.53C142.808 243.261 143.173 243.11 143.553 243.11H166.279C166.467 243.11 166.654 243.147 166.828 243.219C167.002 243.291 167.16 243.397 167.293 243.53C167.426 243.663 167.532 243.821 167.604 243.995C167.676 244.168 167.713 244.355 167.713 244.543C167.713 244.731 167.676 244.918 167.604 245.091C167.532 245.265 167.426 245.423 167.293 245.556C167.16 245.69 167.002 245.795 166.828 245.867C166.654 245.939 166.467 245.976 166.279 245.976Z" fill="#739AF0"/>
<path d="M183.681 237.1H143.453C142.716 237.1 142.119 237.697 142.119 238.434V238.633C142.119 239.37 142.716 239.967 143.453 239.967H183.681C184.418 239.967 185.015 239.37 185.015 238.633V238.434C185.015 237.697 184.418 237.1 183.681 237.1Z" fill="#739AF0"/>
<path d="M227.692 237.1H190.216C189.503 237.1 188.926 237.678 188.926 238.389V238.678C188.926 239.39 189.503 239.967 190.216 239.967H227.692C228.405 239.967 228.982 239.39 228.982 238.678V238.389C228.982 237.678 228.405 237.1 227.692 237.1Z" fill="#739AF0"/>
<path d="M194.624 245.976H171.899C171.518 245.976 171.153 245.825 170.884 245.556C170.615 245.288 170.464 244.923 170.464 244.543C170.464 244.163 170.615 243.798 170.884 243.53C171.153 243.261 171.518 243.11 171.899 243.11H194.624C195.005 243.11 195.37 243.261 195.639 243.53C195.908 243.798 196.059 244.163 196.059 244.543C196.059 244.731 196.022 244.918 195.95 245.091C195.877 245.265 195.772 245.423 195.639 245.556C195.505 245.69 195.347 245.795 195.173 245.867C194.999 245.939 194.813 245.976 194.624 245.976Z" fill="#739AF0"/>
<path d="M246.002 227.337H199.943C198.984 227.337 198.206 228.114 198.206 229.072V229.802C198.206 230.76 198.984 231.537 199.943 231.537H246.002C246.961 231.537 247.738 230.76 247.738 229.802V229.072C247.738 228.114 246.961 227.337 246.002 227.337Z" fill="#F99746"/>
<path d="M116.644 211.316C116.644 211.316 117.163 210.148 117.499 209.587C117.836 209.026 119.272 207.414 119.518 207.781C119.764 208.148 120.741 210.615 120.22 211.307C119.699 211.998 120.254 213.201 117.668 213.927L116.644 211.316Z" fill="#FFB27D"/>
<path d="M87.9133 203.947C87.9133 203.947 101.147 214.984 106.307 213.964C110.345 213.164 116.536 211.042 116.536 211.042L117.774 214.208C117.774 214.208 112.221 221.735 106.43 221.785C97.3786 221.862 90.6916 217.869 90.6916 217.869L87.9133 203.947Z" fill="#95B3EF"/>
<path d="M64.7031 320.391C64.7031 320.391 65.0877 326.583 66.2855 326.671C66.4451 326.685 72.3668 326.685 72.3668 326.685L79.9267 326.641C79.9267 326.641 79.8767 324.81 77.6753 324.425C75.4738 324.041 71.767 322.489 70.4288 319.571C69.0233 316.501 64.7031 320.391 64.7031 320.391Z" fill="#1C4B8E"/>
<path d="M64.2667 320.812C64.2667 320.812 66.5643 321.58 68.36 321.58C69.6515 321.563 70.9355 321.381 72.1803 321.036C72.1803 321.036 72.6129 316.856 74.9932 307.644C76.241 302.816 78.0233 296.607 80.5593 288.893C87.5712 267.568 89.7053 255.102 89.8995 253.928C89.9091 253.867 89.913 253.836 89.913 253.836L89.8899 253.824L68.3331 244.366C68.3331 244.366 70.9979 273.76 67.5987 285.028C67.0821 286.804 66.67 288.608 66.3643 290.432C64.2167 302.672 64.2667 320.812 64.2667 320.812Z" fill="#FFA561"/>
<path d="M74.9931 307.642C76.2409 302.814 78.0232 296.605 80.5592 288.891C87.5711 267.566 89.7052 255.1 89.8994 253.926C89.8981 253.891 89.8948 253.857 89.8898 253.822L68.333 244.364C68.333 244.364 70.9978 273.758 67.5986 285.026C67.1218 286.596 74.9931 307.642 74.9931 307.642Z" fill="#F4904D"/>
<path d="M81.5398 320.391C81.5398 320.391 81.9243 326.583 83.1241 326.671C83.2836 326.685 89.2054 326.685 89.2054 326.685L96.7653 326.641C96.7653 326.641 96.7095 324.81 94.5062 324.425C92.3028 324.041 88.5979 322.489 87.2578 319.571C85.8504 316.501 81.5398 320.391 81.5398 320.391Z" fill="#1C4B8E"/>
<path d="M93.7621 245.05C93.7621 245.05 94.0428 264.091 90.7455 287.47C87.4481 310.848 88.5671 320.775 88.5671 320.775C88.5671 320.775 86.3022 321.509 85.387 321.582C83.0587 321.774 80.6708 321.038 80.6708 321.038C80.6708 321.038 75.9449 297.646 77.3042 285.944C78.6635 274.242 70.8422 245.792 70.8422 245.792L93.7621 245.05Z" fill="#FFA561"/>
<path d="M78.4771 200.492L82.6857 203.249L86.5176 202.166C87.2194 201.167 87.4039 199.242 87.4135 197.574C87.4189 196.553 87.3689 195.532 87.2636 194.516L81.586 192.018L79.4711 191.084C79.4711 191.117 79.6364 192.823 79.6633 193.073C80.0517 197.488 78.4771 200.492 78.4771 200.492Z" fill="#FFB27D"/>
<path d="M93.8601 250.343C88.6209 255.396 68.7984 254.547 67.5775 248.979C66.3566 243.411 68.9099 201.584 77.856 198.957C79.7133 198.412 89.6399 201.616 89.6399 201.616C90.7342 204.632 91.5961 207.726 92.2182 210.873C92.4105 211.881 92.9873 222.569 93.4275 232.568C93.6294 237.246 93.8005 241.773 93.889 245.089C93.9678 248.193 93.9717 250.232 93.8601 250.343Z" fill="#AFCDFB"/>
<path d="M80.0805 193.144C81.2341 195.09 85.2716 196.794 87.4135 197.574C87.4189 196.553 87.3688 195.532 87.2635 194.516L81.5859 192.018C80.3323 191.995 79.5671 192.276 80.0805 193.144Z" fill="#FCA56B"/>
<path d="M89.4035 194.17C89.4035 194.17 80.2555 197.021 78.5655 191.302C76.8755 185.582 74.5587 182.099 80.3285 180.036C86.0984 177.972 87.8807 179.821 88.9094 181.592C89.938 183.363 91.7414 193.28 89.4035 194.17Z" fill="#FFB27D"/>
<path d="M88.5536 181.041C88.5536 181.041 87.9768 187.697 86.5925 187.407C85.2082 187.117 83.6989 186.501 83.9008 188.508C84.1027 190.516 82.5549 193.953 80.5765 193.945C76.3159 193.928 71.6862 182.994 72.8532 180.933C76.216 174.958 93.416 173.75 88.5536 181.041Z" fill="#163560"/>
<path d="M87.2077 199.101C87.0885 199.052 80.3977 196.053 79.6152 196.31C78.8327 196.567 77.856 198.957 77.856 198.957L89.6399 201.618C89.6399 201.618 88.7113 199.741 87.2077 199.101Z" fill="#95B3EF"/>
<path d="M128.868 231.494L91.3568 266.79C90.6205 267.482 89.6937 267.703 89.2958 267.28L88.0287 265.935C87.6307 265.513 87.9076 264.59 88.642 263.908L126.155 228.618C126.889 227.927 127.818 227.706 128.216 228.128L129.481 229.473C129.879 229.89 129.604 230.803 128.868 231.494Z" fill="#1F4D84"/>
<path d="M107.817 251.298L91.3568 266.79C90.6205 267.482 89.6937 267.703 89.2958 267.28L88.0287 265.935C87.6307 265.513 87.9076 264.59 88.642 263.908L105.104 248.422L107.817 251.298Z" fill="#739AF0"/>
<path d="M120.247 218.169C121.553 222.449 123.821 226.374 126.877 229.645C129.932 232.915 133.695 235.445 137.879 237.042C142.062 238.638 146.555 239.259 151.014 238.856C155.474 238.453 159.783 237.038 163.612 234.718C167.441 232.398 170.689 229.235 173.109 225.47C175.528 221.705 177.055 217.437 177.572 212.993C178.09 208.548 177.585 204.044 176.095 199.825C174.606 195.605 172.172 191.781 168.978 188.645C168.828 188.495 168.674 188.347 168.517 188.201C163.795 183.763 157.739 181.009 151.29 180.366C144.84 179.723 138.358 181.228 132.853 184.646C127.348 188.065 123.127 193.205 120.847 199.268C118.567 205.33 118.356 211.976 120.247 218.171V218.169ZM128.651 191.054C132.321 187.156 137.066 184.433 142.285 183.229C147.505 182.026 152.964 182.396 157.973 184.293C162.981 186.189 167.315 189.528 170.425 193.886C173.535 198.243 175.282 203.425 175.445 208.775C175.608 214.124 174.179 219.402 171.34 223.941C168.501 228.48 164.379 232.075 159.495 234.273C154.611 236.471 149.184 237.172 143.901 236.288C138.619 235.404 133.717 232.974 129.816 229.306C127.222 226.873 125.133 223.953 123.67 220.712C122.207 217.472 121.399 213.975 121.291 210.421C121.182 206.868 121.777 203.328 123.04 200.005C124.303 196.682 126.209 193.64 128.651 191.054Z" fill="#1F4D84"/>
<g opacity="0.5">
<path d="M168.096 228.138C164.426 232.036 159.681 234.759 154.462 235.962C149.244 237.166 143.785 236.796 138.776 234.9C133.768 233.003 129.435 229.665 126.325 225.308C123.215 220.951 121.468 215.77 121.304 210.42C121.141 205.071 122.569 199.793 125.408 195.255C128.246 190.716 132.368 187.121 137.251 184.923C142.135 182.725 147.561 182.024 152.844 182.908C158.126 183.791 163.028 186.22 166.929 189.888C169.532 192.314 171.629 195.233 173.098 198.473C174.567 201.714 175.379 205.214 175.488 208.77C175.596 212.326 174.999 215.868 173.73 219.193C172.461 222.517 170.546 225.557 168.096 228.138Z" fill="#B3CFF9"/>
</g>
<path d="M93.889 245.081C73.2186 230.363 74.9374 210.725 74.9374 210.725C82.4934 214.982 89.9879 224.396 93.4276 232.561C93.6333 237.246 93.8006 241.773 93.889 245.081Z" fill="#95B3EF"/>
<path d="M114.288 238.386C115.746 238.049 116.724 236.949 116.928 236.757C116.928 236.757 117.549 236.799 116.826 238.124C116.767 238.234 116.634 238.509 116.53 238.72C116.519 238.739 116.513 238.761 116.513 238.783C116.513 238.805 116.519 238.827 116.53 238.846C116.541 238.866 116.556 238.882 116.575 238.893C116.594 238.905 116.616 238.911 116.638 238.912C117.48 238.975 118.326 238.643 119.945 238.979C120.17 239.027 120.233 239.556 120.226 239.79C120.21 240.174 120.239 240.608 119.789 241.2C119.53 241.544 118.801 241.915 117.178 242.568C116.561 242.816 114.794 242.628 113.141 242.061L111.818 241.448L112.227 238.991L112.56 239.06C113.085 239.166 113.738 238.52 114.288 238.386Z" fill="#FFB27D"/>
<path d="M81.3533 201.618C81.3533 201.618 62.7805 205.151 86.8175 232.025C90.6628 236.324 111.427 241.921 111.427 241.921C111.427 241.921 113.542 240.128 112.471 238.68C112.471 238.68 98.1727 228.305 95.0253 226.653C93.6103 225.911 89.5323 210.091 87.2251 206.289C84.9179 202.487 81.3533 201.618 81.3533 201.618Z" fill="#AFCDFB"/>
<path d="M117.147 211.653C117.147 211.653 117.755 210.5 117.872 209.879C117.989 209.259 118.757 207.484 119.072 207.168C119.199 207.044 119.614 207.207 119.662 207.745C119.683 207.981 119.568 208.408 119.364 208.919C119.032 209.749 119.087 210.876 118.98 211.251C118.684 212.179 117.147 211.653 117.147 211.653Z" fill="#FFB27D"/>
<path d="M365.466 176.22L354.951 178.666L349.752 188.12L345.782 166.576L365.466 176.22Z" fill="#233862"/>
<path d="M354.379 176.595L352.847 177.755L359.562 186.612L361.095 185.452L354.379 176.595Z" fill="#233862"/>
<path d="M330.795 275.795C330.795 275.795 335.142 270.694 331.039 267.476C331.039 267.476 328.041 265.676 325.603 265.832C325.603 265.832 329.078 271.61 327.961 272.189C326.843 272.767 324.556 265.465 324.556 265.465C324.556 265.465 317.747 264.827 315.561 265.885C315.561 265.885 321.395 270.625 320.176 270.913C318.957 271.201 312.652 266.55 312.652 266.55C312.652 266.55 306.323 267.647 306.673 271.507C307.023 275.366 309.209 276.552 310.168 276.446C311.128 276.34 316.73 274.183 316.855 274.967C316.98 275.751 313.612 278.329 311.247 278.457C311.247 278.457 315.727 283.364 318.691 281.935C321.656 280.505 321.9 278.252 323.748 277.403C325.596 276.554 327.174 276.55 326.413 277.403C325.651 278.256 322.306 279.115 321.254 280.988C320.203 282.861 319.257 284.125 322.327 283.654C325.398 283.184 330.379 280.922 330.595 278.35L330.795 275.795Z" fill="#82B378"/>
<path d="M309.78 271.607C309.78 271.607 326.98 270.89 330.795 275.795C330.795 275.795 331.644 278.306 334.236 280.598L334.644 281.693C334.644 281.693 331.652 278.561 330.585 278.375C330.585 278.365 332.235 272.269 309.78 271.607Z" fill="#82B378"/>
<path d="M334.236 280.588C334.236 280.588 337.937 283.305 338.21 288.179L337.539 288.242C337.539 288.242 336.343 283.203 334.207 281.239C332.071 279.276 334.236 280.588 334.236 280.588Z" fill="#82B378"/>
<path d="M353.863 262.341C353.863 262.341 346.908 258.479 350.131 253.198C350.131 253.198 352.711 249.953 355.485 249.112C355.485 249.112 354.03 256.977 355.51 257.157C356.991 257.338 356.5 248.278 356.5 248.278C356.5 248.278 363.806 244.741 366.669 245.012C366.669 245.012 362.161 252.696 363.639 252.504C365.118 252.312 370.186 244.531 370.186 244.531C370.186 244.531 377.684 243.119 378.894 247.555C380.103 251.991 378.174 254.216 377.065 254.497C375.956 254.777 368.828 254.708 369.017 255.632C369.205 256.556 374.016 258.02 376.708 257.169C376.708 257.169 373.77 264.485 369.88 264.127C365.991 263.77 364.783 261.369 362.382 261.192C359.98 261.015 358.219 261.666 359.423 262.31C360.626 262.954 364.699 262.502 366.648 264.151C368.598 265.799 370.172 266.807 366.566 267.559C362.959 268.31 356.479 267.868 355.176 265.098L353.863 262.341Z" fill="#A8D29F"/>
<path d="M375.475 248.956C375.475 248.956 356.056 255.296 353.863 262.341C353.863 262.341 353.964 265.486 352.032 269.098V270.485C352.032 270.485 354.053 265.762 355.162 265.105C355.166 265.111 350.798 259.021 375.475 248.956Z" fill="#82B378"/>
<path d="M352.038 269.096C352.038 269.096 349.056 273.653 350.781 279.184L351.55 278.974C351.55 278.974 350.781 272.878 352.34 269.806C353.899 266.734 352.038 269.096 352.038 269.096Z" fill="#82B378"/>
<path d="M342.809 257.019C342.809 257.019 351.942 251.87 347.65 244.937C347.65 244.937 344.22 240.681 340.558 239.596C340.558 239.596 342.542 249.951 340.59 250.201C338.639 250.451 339.212 238.503 339.212 238.503C339.212 238.503 329.56 233.892 325.78 234.276C325.78 234.276 331.789 244.374 329.837 244.136C327.886 243.897 321.143 233.681 321.143 233.681C321.143 233.681 311.255 231.884 309.688 237.74C308.121 243.596 310.691 246.512 312.156 246.873C313.621 247.235 323.014 247.083 322.775 248.303C322.537 249.523 316.198 251.494 312.656 250.416C312.656 250.416 316.59 260.033 321.712 259.53C326.834 259.027 328.41 255.853 331.581 255.597C334.751 255.342 337.072 256.191 335.49 257.048C333.907 257.905 328.537 257.35 325.982 259.534C323.427 261.718 321.368 263.067 326.119 264.026C330.869 264.984 339.416 264.35 341.115 260.689L342.809 257.019Z" fill="#A8D29F"/>
<path d="M314.202 239.558C314.202 239.558 339.844 247.771 342.809 257.019C342.809 257.019 342.7 261.165 345.276 265.91V267.739C345.276 267.739 342.573 261.53 341.106 260.683C341.106 260.683 346.814 252.62 314.202 239.558Z" fill="#82B378"/>
<path d="M345.27 265.91C345.27 265.91 349.24 271.893 347.001 279.197L345.984 278.926C345.984 278.926 346.945 270.886 344.865 266.852C342.784 262.817 345.27 265.91 345.27 265.91Z" fill="#82B378"/>
<path d="M416.062 327.138H322.287C309.213 312.195 312.674 292.008 330.018 274.984C332.2 272.844 336.386 271.324 340.898 270.254C349.216 268.279 358.65 267.826 358.723 267.785C358.75 267.785 363.708 263.751 366.691 260.151C375.958 248.941 383.841 249.903 383.841 249.903C393.287 248.066 401.337 247.527 407.316 250.848C412.85 253.922 416.597 260.331 417.998 272.091C418.264 274.315 418.446 276.73 418.541 279.353C418.883 288.897 420.765 297.387 421.882 304.576C423.507 314.996 424.651 322.915 416.062 327.138Z" fill="#FFA561"/>
<path d="M402.636 262.84C396.905 265.958 396.271 276.237 387.301 278.89C378.332 281.543 363.101 281.303 354.464 290.665C346.132 299.694 336.941 276.717 340.898 270.254C349.216 268.279 358.65 267.826 358.723 267.785C358.75 267.785 363.708 263.751 366.691 260.151C375.958 248.941 383.841 249.903 383.841 249.903C393.287 248.066 401.337 247.527 407.316 250.848C413.897 257.645 408.372 259.72 402.636 262.84Z" fill="#F4904D"/>
<path d="M340.598 307.273C340.598 307.273 342.25 311.648 341.908 313.273C341.565 314.898 342.136 318.047 341.475 319.457C340.814 320.867 339.631 322.915 340.775 323.434C341.208 323.626 346.232 319.709 346.516 318.556C346.801 317.403 347.016 314.005 347.973 312.157C348.931 310.309 348.12 308.824 346.724 308.149C345.328 307.475 343.375 303.767 343.375 303.767L340.598 307.273Z" fill="#F9DDBF"/>
<path d="M367.454 265.795C367.454 265.795 340.019 264.102 336.484 267.739C332.759 271.57 338.827 309.252 338.827 309.252C338.827 309.252 346.266 309.465 346.852 307.496C346.852 307.496 345.457 289.245 346.618 286.096C347.779 282.947 347.043 278.573 347.043 278.573C347.043 278.573 361.599 280.746 366.216 279.639C370.832 278.532 367.454 265.795 367.454 265.795Z" fill="#233862"/>
<path d="M374.1 245.675C374.1 245.698 370.063 255.104 368.084 256.107C366.106 257.109 358.973 265.313 357.441 265.171C355.908 265.028 359.021 266.846 359.021 266.846C359.021 266.846 371.711 260.658 372.441 260.299C373.172 259.939 376.986 253.651 377.511 250.46C378.036 247.269 374.1 245.675 374.1 245.675Z" fill="#FFB27D"/>
<path d="M335.534 314.493C335.534 314.493 333.971 318.9 332.65 319.92C331.329 320.94 329.741 323.716 328.326 324.368C326.911 325.019 324.673 325.824 325.223 326.954C325.428 327.382 331.798 327.626 332.759 326.929C333.721 326.231 336.08 323.774 338.005 322.979C339.929 322.183 340.267 320.527 339.637 319.111C339.006 317.696 339.908 313.603 339.908 313.603L335.534 314.493Z" fill="#F9DDBF"/>
<path d="M382.362 241.496C381.785 240.82 396.634 242.487 398.61 250.072C398.61 250.072 410.021 241.085 399.554 233.51C395.93 230.889 395.565 228.088 395.04 225.527C394.515 222.966 390.897 215.606 384.623 219.26C384.623 219.26 381.758 219.276 379.943 220.845C375.821 224.419 371.32 247.117 382.362 241.496Z" fill="#163560"/>
<path d="M379.472 267.124C379.472 267.124 349.644 270.166 347.026 273.209C344.407 276.252 334.115 315.815 334.115 315.815C334.115 315.815 337.16 317.509 339.925 315.924C339.925 315.924 347.808 302.501 351.302 298.288C354.795 294.075 356.095 281.065 356.672 280.932C357.248 280.799 375.94 283.531 382.376 278.592C388.811 273.653 379.472 267.124 379.472 267.124Z" fill="#2A4E96"/>
<path d="M396.067 240.074C396.067 240.074 388.953 236.901 379.93 238.345C378.086 238.643 376.427 239.25 375.108 241.419C373.247 244.493 372.376 246.13 372.376 246.13C372.376 246.13 372.555 247.552 375.1 248.681C374.406 251.223 375.735 255.661 374.523 257.384C373.312 259.107 365.723 263.38 365.348 265.757C364.662 270.121 378.305 278.029 382.376 277.182C394.077 274.759 402.027 243.415 396.067 240.074Z" fill="#F9DDBF"/>
<path d="M392.044 231.083C392.044 231.083 393.446 228.324 393.631 226.061C393.763 224.448 392.396 218.634 386.555 220.042C385.378 220.32 384.278 220.859 383.337 221.618C382.133 222.607 380.453 224.655 383.016 229.598L383.719 231.283L392.044 231.083Z" fill="#163560"/>
<path d="M384.037 240.388C383.446 241.01 383.679 243.077 386.444 242.923C388.259 242.822 392.148 240.578 391.785 239.029C391.612 238.292 390.216 236.393 389.885 232.023L389.557 232.115L384.016 233.673C384.016 233.673 384.285 235.433 384.419 237.098C384.531 238.499 384.281 240.13 384.037 240.388Z" fill="#FFB27D"/>
<path d="M384.016 233.673C384.016 233.673 384.285 235.433 384.419 237.098C387.563 236.762 388.999 233.759 389.557 232.115L384.016 233.673Z" fill="#F4A269"/>
<path d="M383.898 236.232C383.898 236.232 391.149 234.407 389.941 229.913C388.734 225.42 388.857 222.158 384.173 223.133C379.49 224.109 379.059 226.063 379.097 227.662C379.136 229.26 381.981 236.591 383.898 236.232Z" fill="#FFB27D"/>
<path d="M380.86 223.908C380.86 223.908 383.296 228.542 387.89 229.039C390.581 229.331 391.314 231.101 391.314 231.101C391.314 231.101 390.506 226.042 389.155 222.949C389.155 222.949 381.676 220.999 380.86 223.908Z" fill="#163560"/>
<path d="M381.691 224.524C381.691 224.524 380.105 226.144 379.615 227.287C378.89 228.978 380.307 232.538 380.891 233.304C380.891 233.304 377.515 227.587 378.642 225.108C379.836 222.478 381.691 224.524 381.691 224.524Z" fill="#163560"/>
<path d="M359.596 266.247C359.596 266.247 358.152 267.774 357.977 267.856C357.016 268.304 355.816 268.049 355.233 268.191C354.651 268.333 354.751 267.974 355.179 267.68C355.608 267.386 356.668 267.501 356.235 267.393C355.802 267.286 353.468 266.852 352.582 267.088C351.192 267.461 350.094 267.023 350.008 266.881C349.921 266.738 353.182 265.151 354.114 265.198C355.047 265.244 357.727 265.121 357.727 265.121L359.596 266.247Z" fill="#FFB27D"/>
<path d="M398.526 242.891C398.526 242.891 407.524 263.182 405.024 266.162C402.525 269.142 385.233 265.526 385.233 265.526L385.765 263.641C385.765 263.641 398.497 262.873 399.404 262.608C400.708 262.239 392.954 248.007 392.954 248.007L398.526 242.891Z" fill="#FFB27D"/>
<path d="M395.171 239.74C395.388 239.74 398.076 240.626 400.006 244.443C401.904 248.193 402.596 250.015 402.596 250.015C402.596 250.015 394.186 256.531 390.841 254.134C387.495 251.736 392.085 239.661 395.171 239.74Z" fill="#F9DDBF"/>
<path d="M387.251 263.549C387.251 263.549 385.806 262.612 385.221 262.101C384.637 261.59 381.251 261.171 381.253 261.513C381.255 261.855 383.225 262.322 383.441 262.665C383.656 263.009 384.86 264.418 385.888 264.414C386.175 264.419 386.457 264.34 386.7 264.186C386.942 264.032 387.134 263.811 387.251 263.549Z" fill="#FFB27D"/>
<path d="M383.304 266.598L379.424 266.047C378.847 265.964 378.255 265.47 378.111 264.965L375.967 257.396C375.823 256.883 376.175 256.531 376.754 256.614L380.634 257.165C380.928 257.214 381.205 257.34 381.436 257.53C381.666 257.72 381.842 257.967 381.947 258.247L384.089 265.814C384.235 266.331 383.883 266.683 383.304 266.598Z" fill="#1F4A91"/>
<path d="M382.497 266.485L378.617 265.933C378.04 265.851 377.448 265.357 377.304 264.854L375.16 257.284C375.016 256.769 375.367 256.418 375.946 256.5L379.826 257.052C380.121 257.1 380.398 257.226 380.628 257.416C380.859 257.606 381.035 257.853 381.139 258.133L383.281 265.703C383.427 266.214 383.075 266.567 382.497 266.485Z" fill="#233862"/>
<path d="M375.823 257.467C375.762 257.253 375.908 257.107 376.15 257.142C376.272 257.162 376.387 257.214 376.483 257.293C376.578 257.372 376.651 257.475 376.694 257.592C376.756 257.805 376.609 257.951 376.367 257.916C376.245 257.896 376.13 257.844 376.035 257.765C375.939 257.686 375.866 257.583 375.823 257.467Z" fill="#1F4A91"/>
<path d="M385.233 265.526C385.233 265.526 382.608 265.563 381.951 265.407C381.293 265.251 379.609 263.167 380.059 262.644C380.339 262.316 381.908 262.906 382.656 262.904C383.404 262.902 385.348 261.822 386.673 264.031C386.823 264.279 385.233 265.526 385.233 265.526Z" fill="#FFB27D"/>
<path d="M396.497 270.517C396.497 270.517 393.671 273.163 381.847 273.541C370.022 273.92 354.608 286.98 354.464 290.665C354.32 294.349 378.272 299.952 378.644 299.425C379.015 298.899 393.833 286.169 393.833 286.169L396.497 270.517Z" fill="#FFA561"/>
<path d="M421.884 304.58C408.731 288.173 381.701 310.535 374.714 309.909C368.284 309.333 387.251 286.903 410.773 283.566C420.281 282.221 418.004 272.398 418 272.095C418.266 274.319 418.448 276.734 418.543 279.357C418.885 288.901 420.767 297.391 421.884 304.58Z" fill="#F4904D"/>
<path d="M456.246 328.131L7.75026 327.976C7.6056 327.975 7.467 327.918 7.36471 327.815C7.26242 327.713 7.20473 327.575 7.20422 327.43V327.15C7.20473 327.005 7.26269 326.866 7.36539 326.764C7.4681 326.661 7.60719 326.604 7.75218 326.604L456.246 326.758C456.391 326.758 456.53 326.816 456.633 326.919C456.735 327.021 456.793 327.16 456.794 327.305V327.586C456.793 327.73 456.735 327.869 456.632 327.971C456.529 328.073 456.391 328.131 456.246 328.131Z" fill="#2E3552"/>
<path d="M270.988 78.667L296.606 83.9637L280.183 71.2128L279.075 74.9015L272.719 75.6488L270.988 78.667Z" fill="#95B3EF"/>
<path d="M296.606 83.9637L275.787 71.5414L254.773 69.1668L296.606 83.9637Z" fill="#F9DDBF"/>
<path d="M280.183 71.2128L296.606 83.9637L284.466 64.8787L280.183 71.2128Z" fill="#F9DDBF"/>
<path d="M110.012 150.707L84.3949 156.002L100.818 143.251L101.926 146.942L108.282 147.687L110.012 150.707Z" fill="#95B3EF"/>
<path d="M84.3949 156.002L105.213 143.58L126.228 141.207L84.3949 156.002Z" fill="#F9DDBF"/>
<path d="M100.818 143.251L84.3949 156.002L96.5345 136.917L100.818 143.251Z" fill="#F9DDBF"/>
<path d="M151.986 158.104L152.736 157.212C153.412 157.8 154.091 158.132 154.972 158.132C155.741 158.132 156.227 157.779 156.227 157.222C156.227 156.717 155.945 156.453 154.628 156.131C153.12 155.775 152.268 155.331 152.268 154.006C152.268 152.792 153.282 151.952 154.689 151.952C155.625 151.933 156.537 152.248 157.262 152.842L156.593 153.783C155.954 153.306 155.318 153.055 154.67 153.055C153.941 153.055 153.516 153.439 153.516 153.914C153.516 154.461 153.841 154.703 155.197 155.028C156.696 155.391 157.475 155.927 157.475 157.122C157.475 158.448 156.433 159.235 154.945 159.235C153.852 159.241 152.796 158.837 151.986 158.104Z" fill="#739AF0"/>
<path d="M158.505 156.463C158.505 154.926 159.59 153.681 161.118 153.681C162.82 153.681 163.681 155.026 163.681 156.563C163.681 156.644 163.67 156.845 163.66 156.907H159.732C159.766 157.286 159.945 157.639 160.231 157.891C160.517 158.143 160.889 158.276 161.27 158.263C161.543 158.264 161.813 158.208 162.062 158.098C162.312 157.988 162.535 157.827 162.718 157.625L163.437 158.263C163.174 158.587 162.84 158.846 162.461 159.019C162.082 159.193 161.668 159.277 161.251 159.264C159.701 159.256 158.505 158.132 158.505 156.463ZM162.466 156.09C162.383 155.301 161.918 154.684 161.109 154.684C160.359 154.684 159.832 155.26 159.721 156.09H162.466Z" fill="#739AF0"/>
<path d="M168.186 159.135V158.476C167.975 158.727 167.71 158.927 167.41 159.06C167.11 159.193 166.784 159.257 166.456 159.245C165.444 159.245 164.552 158.668 164.552 157.575C164.552 156.392 165.475 155.825 166.719 155.825C167.221 155.816 167.72 155.891 168.198 156.046V155.946C168.198 155.207 167.732 154.803 166.883 154.803C166.352 154.804 165.828 154.917 165.344 155.135L165.012 154.156C165.647 153.853 166.343 153.7 167.046 153.71C168.626 153.71 169.395 154.54 169.395 155.965V159.133L168.186 159.135ZM168.217 156.899C167.825 156.756 167.41 156.684 166.992 156.686C166.223 156.686 165.765 156.999 165.765 157.537C165.765 158.042 166.221 158.325 166.798 158.325C167.609 158.325 168.217 157.869 168.217 157.203V156.899Z" fill="#739AF0"/>
<path d="M170.859 153.793H172.078V154.997C172.412 154.198 173.039 153.652 173.971 153.691V154.988H173.9C172.827 154.988 172.078 155.685 172.078 157.101V159.135H170.853L170.859 153.793Z" fill="#739AF0"/>
<path d="M174.566 156.475C174.56 156.108 174.628 155.744 174.766 155.404C174.903 155.065 175.107 154.756 175.365 154.495C175.624 154.235 175.931 154.029 176.271 153.889C176.61 153.75 176.973 153.679 177.34 153.681C177.742 153.663 178.143 153.735 178.512 153.893C178.882 154.051 179.212 154.291 179.476 154.594L178.707 155.414C178.332 155.03 177.938 154.745 177.319 154.745C176.429 154.745 175.781 155.514 175.781 156.475C175.781 157.435 176.438 158.204 177.38 158.204C177.957 158.204 178.382 157.931 178.767 157.535L179.507 158.265C179.138 158.704 178.643 159.02 178.09 159.169C177.536 159.319 176.949 159.295 176.41 159.1C175.87 158.906 175.403 158.551 175.071 158.083C174.74 157.616 174.56 157.057 174.556 156.484L174.566 156.475Z" fill="#739AF0"/>
<path d="M180.639 151.748H181.866V154.63C182.21 154.125 182.706 153.689 183.537 153.689C184.74 153.689 185.44 154.498 185.44 155.743V159.143H184.213V156.108C184.213 155.278 183.8 154.801 183.06 154.801C182.32 154.801 181.856 155.297 181.856 156.127V159.143H180.63L180.639 151.748Z" fill="#739AF0"/>
<path d="M186.836 157.748H188.182V159.135H186.836V157.748Z" fill="#739AF0"/>
<path d="M189.56 157.748H190.906V159.135H189.56V157.748Z" fill="#739AF0"/>
<path d="M192.285 157.748H193.631V159.135H192.285V157.748Z" fill="#739AF0"/>
<path d="M195.007 157.748H196.353V159.135H195.007V157.748Z" fill="#739AF0"/>
<path d="M265.836 224.294C265.836 224.035 265.913 223.781 266.057 223.566C266.201 223.35 266.406 223.182 266.645 223.083C266.885 222.984 267.148 222.958 267.403 223.009C267.657 223.059 267.891 223.184 268.074 223.367C268.258 223.551 268.382 223.784 268.433 224.038C268.484 224.292 268.458 224.556 268.358 224.795C268.259 225.035 268.091 225.239 267.875 225.383C267.66 225.527 267.406 225.604 267.147 225.604C266.799 225.604 266.466 225.466 266.22 225.22C265.974 224.975 265.836 224.641 265.836 224.294Z" fill="#D7E5FF"/>
<path d="M326.815 224.647H267.501C267.407 224.647 267.317 224.61 267.251 224.544C267.184 224.478 267.147 224.388 267.147 224.294C267.147 224.248 267.156 224.202 267.174 224.159C267.192 224.116 267.218 224.077 267.251 224.045C267.284 224.012 267.323 223.986 267.366 223.968C267.408 223.951 267.454 223.942 267.501 223.942H326.815C326.861 223.942 326.907 223.951 326.95 223.968C326.993 223.986 327.032 224.012 327.065 224.045C327.098 224.077 327.124 224.116 327.141 224.159C327.159 224.202 327.168 224.248 327.168 224.294C327.168 224.388 327.131 224.478 327.065 224.544C326.998 224.61 326.908 224.647 326.815 224.647Z" fill="#D7E5FF"/>
</svg>
