<svg width="415" height="369" viewBox="0 0 415 369" fill="none" xmlns="http://www.w3.org/2000/svg">
<g clip-path="url(#clip0_18_6678)">
<path fill-rule="evenodd" clip-rule="evenodd" d="M56.7392 32.9313C57.8463 29.8262 59.3636 26.8834 61.2507 24.1815L57.0581 16.0702L68.5847 6.32715L75.8597 11.8253C78.8336 10.4128 81.9835 9.40663 85.225 8.83385L87.9767 0.131348L103.011 1.39652L104.275 10.4301C107.374 11.5474 110.313 13.0702 113.014 14.9587L121.104 10.773L130.847 22.3133L125.344 29.5969C126.751 32.5807 127.76 35.7373 128.343 38.9852L137.036 41.7402L135.76 56.7686L126.737 58.0692C125.628 61.1732 124.111 64.1157 122.226 66.819L126.418 74.9185L114.892 84.6615L107.617 79.1278C104.643 80.5404 101.493 81.5465 98.2514 82.1193L95.4997 90.8218L80.4656 89.5567L79.2019 80.5349C76.1 79.4225 73.1608 77.8994 70.4625 76.0063L62.3726 80.2157L52.6294 68.7109L58.1328 61.3799C56.7233 58.3968 55.7146 55.2399 55.1331 51.9916L46.4409 49.2366L47.74 34.1846L56.7629 32.9313H56.7392ZM70.0846 42.9699C69.7262 47.2663 70.6482 51.5726 72.7339 55.3445C74.8195 59.1164 77.9753 62.1846 81.8023 64.1612C85.6293 66.1378 89.9557 66.9342 94.2346 66.4496C98.5136 65.9649 102.553 64.2211 105.842 61.4385C109.131 58.656 111.523 54.9595 112.714 50.8165C113.906 46.6734 113.843 42.2697 112.536 38.162C111.228 34.0543 108.733 30.4271 105.366 27.7387C102 25.0503 97.9128 23.4215 93.6219 23.0582C87.8634 22.5737 82.1484 24.3994 77.7344 28.1336C73.3203 31.8677 70.5685 37.2045 70.0846 42.9699Z" fill="#D1D7FA"/>
<path fill-rule="evenodd" clip-rule="evenodd" d="M7.9285 313.031C8.73065 310.791 9.82678 308.668 11.1881 306.717L8.15289 300.805L16.4199 293.711L21.758 297.802C23.9044 296.785 26.176 296.057 28.5133 295.638L30.4974 289.359L41.3508 290.27L42.2602 296.797C44.4976 297.6 46.6184 298.697 48.5668 300.06L54.4718 297.021L61.4987 305.298L57.5306 310.56C58.5564 312.705 59.2836 314.981 59.6918 317.323L65.8802 319.381L64.9709 330.247L58.4517 331.158C57.6544 333.4 56.558 335.524 55.1922 337.472L58.2273 343.324L49.9603 350.36L44.7049 346.387C42.5588 347.415 40.2818 348.143 37.9377 348.551L35.93 354.853L25.0766 353.942L24.12 347.38C21.8805 346.582 19.7591 345.484 17.8135 344.117L11.9675 347.155L4.88152 338.879L8.93235 333.57C7.91663 331.417 7.18991 329.138 6.77112 326.794L0.5 324.808L1.40937 313.942L7.9285 313.031ZM17.5655 320.279C17.3055 323.381 17.9699 326.49 19.4748 329.214C20.9796 331.937 23.2573 334.153 26.0197 335.58C28.7822 337.008 31.9055 337.583 34.9946 337.234C38.0837 336.884 40.9999 335.626 43.3746 333.617C45.7492 331.608 47.4756 328.939 48.3354 325.948C49.1953 322.957 49.15 319.778 48.2053 316.813C47.2605 313.848 45.4588 311.229 43.0279 309.289C40.597 307.349 37.6461 306.174 34.5483 305.913C32.4909 305.74 30.4196 305.974 28.4526 306.602C26.4857 307.23 24.6616 308.24 23.0845 309.574C21.5074 310.908 20.2083 312.54 19.2614 314.377C18.3144 316.214 17.7381 318.22 17.5655 320.279Z" fill="#D1D7FA"/>
<path fill-rule="evenodd" clip-rule="evenodd" d="M394.954 101.156C395.22 100.395 395.59 99.6751 396.053 99.0159L394.954 97.0886L397.765 94.7237L399.549 96.0717C400.271 95.7237 401.038 95.477 401.828 95.3386L402.501 93.2103L406.162 93.5177L406.469 95.7288C407.227 95.9995 407.946 96.3693 408.607 96.8284L410.579 95.7997L412.941 98.6139L411.607 100.399C411.945 101.125 412.187 101.892 412.327 102.681L414.453 103.355L414.146 107.021L411.937 107.34C411.669 108.096 411.3 108.812 410.839 109.468L411.866 111.443L409.056 113.808L407.32 112.46C406.594 112.799 405.828 113.041 405.04 113.181L404.367 115.309L400.706 115.002L400.399 112.791C399.639 112.525 398.92 112.155 398.261 111.691L396.289 112.72L393.927 109.906L395.262 108.132C394.925 107.401 394.683 106.631 394.541 105.838L392.415 105.164L392.722 101.499L394.931 101.192L394.954 101.156ZM398.202 103.604C398.115 104.652 398.34 105.703 398.849 106.624C399.358 107.544 400.129 108.293 401.063 108.775C401.997 109.258 403.053 109.452 404.097 109.333C405.142 109.214 406.127 108.788 406.93 108.109C407.733 107.429 408.316 106.527 408.606 105.516C408.896 104.504 408.881 103.429 408.561 102.427C408.241 101.425 407.631 100.54 406.809 99.8841C405.987 99.2285 404.989 98.8318 403.942 98.7439C403.244 98.6823 402.54 98.7592 401.872 98.9702C401.204 99.1812 400.583 99.5222 400.047 99.9737C399.51 100.425 399.068 100.978 398.746 101.601C398.423 102.224 398.226 102.904 398.167 103.604H398.202Z" fill="#0D30C7"/>
<path fill-rule="evenodd" clip-rule="evenodd" d="M357.162 70.9574C357.627 69.6282 358.275 68.3706 359.087 67.221L357.292 63.7566L362.217 59.5945L365.323 61.9593C366.592 61.3594 367.934 60.93 369.315 60.6823L370.496 56.9695L376.909 57.5134L377.452 61.3681C378.773 61.8407 380.024 62.489 381.172 63.2954L384.633 61.4982L388.79 66.4288L386.428 69.5385C387.027 70.8086 387.456 72.1524 387.703 73.535L391.411 74.7174L390.88 81.1379L387.018 81.6818C386.549 83.0089 385.901 84.2658 385.093 85.4182L386.841 88.8117L381.963 93.0211L378.857 90.6563C377.595 91.2646 376.256 91.6981 374.877 91.9451L373.696 95.6578L367.284 95.1258L366.74 91.2711C365.419 90.7944 364.168 90.1422 363.02 89.332L359.524 91.1765L355.367 86.2577L357.729 83.148C357.125 81.8759 356.696 80.5274 356.454 79.1396L352.745 77.9572L353.277 71.5368L357.162 70.9574ZM362.855 75.2377C362.7 77.0713 363.092 78.9097 363.981 80.5203C364.87 82.131 366.216 83.4416 367.849 84.2865C369.481 85.1315 371.328 85.4728 373.154 85.2673C374.981 85.0619 376.705 84.3189 378.11 83.1323C379.515 81.9456 380.537 80.3687 381.046 78.6007C381.556 76.8327 381.531 74.9532 380.974 73.1996C380.417 71.446 379.353 69.8971 377.917 68.7488C376.48 67.6004 374.736 66.9042 372.905 66.748C371.684 66.6361 370.452 66.7673 369.282 67.1341C368.111 67.5009 367.024 68.0961 366.085 68.8853C365.145 69.6745 364.371 70.6421 363.806 71.7323C363.242 72.8226 362.898 74.014 362.796 75.2377H362.855Z" fill="#0D30C7"/>
<path fill-rule="evenodd" clip-rule="evenodd" d="M393.561 336.455C392.98 336.178 392.44 335.824 391.955 335.402L390.301 336.053L388.648 333.617L389.829 332.316C389.616 331.71 389.485 331.078 389.439 330.436L387.809 329.727L388.353 326.842L390.136 326.771C390.407 326.19 390.761 325.652 391.187 325.175L390.526 323.519L392.959 321.852L394.258 323.034C394.863 322.821 395.495 322.69 396.135 322.644L396.844 321.012L399.726 321.556L399.797 323.33C400.374 323.612 400.913 323.966 401.403 324.382L403.056 323.732L404.71 326.168L403.529 327.468C403.742 328.075 403.873 328.707 403.918 329.348L405.548 330.058L405.005 332.943L403.233 333.014C402.954 333.59 402.601 334.126 402.182 334.61L402.832 336.265L400.399 337.933L399.1 336.75C398.494 336.965 397.863 337.096 397.222 337.14L396.525 338.772L393.632 338.228L393.573 336.455H393.561ZM395.769 334.09C396.596 334.246 397.45 334.154 398.224 333.824C398.998 333.494 399.657 332.942 400.117 332.237C400.578 331.532 400.819 330.706 400.81 329.864C400.802 329.022 400.544 328.201 400.069 327.506C399.595 326.81 398.925 326.272 398.144 325.958C397.364 325.644 396.508 325.568 395.684 325.742C394.861 325.915 394.108 326.329 393.52 326.931C392.931 327.533 392.535 328.296 392.38 329.124C392.183 330.228 392.428 331.366 393.062 332.291C393.696 333.216 394.669 333.854 395.769 334.066V334.09Z" fill="#0D30C7"/>
<path fill-rule="evenodd" clip-rule="evenodd" d="M366.48 364.064C365.468 363.573 364.523 362.953 363.67 362.219L360.776 363.402L357.883 359.145L359.997 356.863C359.625 355.802 359.395 354.697 359.312 353.576L356.466 352.334L357.422 347.274L360.528 347.167C361.01 346.151 361.625 345.205 362.359 344.353L361.178 341.456L365.429 338.559L367.791 340.664C368.851 340.292 369.955 340.062 371.075 339.978L372.315 337.129L377.369 338.086L377.487 341.196C378.499 341.678 379.44 342.295 380.286 343.029L383.18 341.846L386.085 346.103L383.959 348.373C384.331 349.434 384.561 350.539 384.644 351.66L387.502 352.902L386.546 357.963L383.44 358.081C382.951 359.092 382.332 360.034 381.597 360.883L382.778 363.78L378.42 366.677L376.141 364.56C375.081 364.932 373.978 365.163 372.858 365.246L371.618 368.108L366.563 367.15L366.457 364.04L366.48 364.064ZM370.342 359.878C371.786 360.154 373.279 359.995 374.632 359.422C375.985 358.848 377.138 357.885 377.945 356.655C378.752 355.425 379.176 353.984 379.164 352.512C379.152 351.041 378.704 349.606 377.878 348.39C377.051 347.173 375.883 346.229 374.52 345.678C373.158 345.126 371.662 344.992 370.224 345.291C368.785 345.591 367.467 346.311 366.437 347.36C365.407 348.41 364.711 349.742 364.437 351.187C364.071 353.124 364.487 355.127 365.594 356.756C366.701 358.386 368.409 359.508 370.342 359.878Z" fill="#0D30C7"/>
<path d="M129.335 342.45L129.501 345.902L314.198 346.387L314.363 342.532C314.371 342.507 314.372 342.48 314.367 342.454C314.362 342.428 314.351 342.404 314.335 342.383C314.319 342.362 314.298 342.346 314.274 342.335C314.25 342.324 314.224 342.318 314.198 342.319H308.505L129.335 342.45Z" fill="#071A6C"/>
<path d="M314.434 342.45L291.369 315.29L152.377 315.432L129.335 342.45H314.434Z" fill="#071A6C"/>
<path d="M152.341 317.926H160.219C160.414 317.938 160.606 317.879 160.762 317.761L161.943 316.106C162.002 316.023 161.872 315.952 161.636 315.952H154.03C153.833 315.94 153.638 315.994 153.475 316.106L152.105 317.761C151.975 317.844 152.105 317.926 152.341 317.926Z" fill="white"/>
<path d="M162.451 317.926H170.328C170.519 317.939 170.709 317.88 170.859 317.761L171.863 316.106C171.863 316.023 171.769 315.952 171.533 315.952H163.844C163.654 315.937 163.466 315.992 163.313 316.106L162.132 317.761C162.073 317.844 162.214 317.926 162.451 317.926Z" fill="white"/>
<path d="M172.56 317.926H180.437C180.674 317.926 180.91 317.844 180.945 317.761L181.76 316.106C181.76 316.023 181.642 315.952 181.418 315.952H173.717C173.535 315.936 173.353 315.991 173.21 316.106L172.229 317.761C172.182 317.844 172.324 317.926 172.56 317.926Z" fill="white"/>
<path d="M182.681 317.926H190.558C190.795 317.926 191.007 317.844 191.043 317.761L191.645 316.106C191.645 316.023 191.515 315.952 191.291 315.952H183.555C183.331 315.952 183.106 316.023 183.071 316.106L182.291 317.761C182.28 317.844 182.445 317.926 182.681 317.926Z" fill="white"/>
<path d="M192.791 317.926H200.668C200.904 317.926 201.117 317.844 201.14 317.761L201.542 316.106C201.542 316.023 201.4 315.952 201.164 315.952H193.476C193.239 315.952 193.027 316.023 192.991 316.106L192.413 317.761C192.389 317.844 192.554 317.926 192.791 317.926Z" fill="white"/>
<path d="M202.9 317.926H210.777C211.014 317.926 211.214 317.844 211.226 317.761L211.439 316.106C211.439 316.023 211.273 315.952 211.037 315.952H203.349C203.113 315.952 202.912 316.023 202.888 316.106L202.51 317.761C202.451 317.844 202.664 317.926 202.9 317.926Z" fill="white"/>
<path d="M213.009 317.926H220.887C221.123 317.926 221.324 317.844 221.324 317.761V316.106C221.324 316.023 221.135 315.952 220.898 315.952H213.21C212.974 315.952 212.785 316.023 212.773 316.106L212.584 317.761C212.596 317.844 212.773 317.926 213.009 317.926Z" fill="white"/>
<path d="M223.119 317.926H230.996C231.232 317.926 231.421 317.844 231.409 317.761L231.22 316.106C231.22 316.023 231.02 315.952 230.783 315.952H223.095C222.871 315.952 222.682 316.023 222.682 316.106V317.761C222.694 317.844 222.883 317.926 223.119 317.926Z" fill="white"/>
<path d="M233.24 317.926H241.117C241.353 317.926 241.531 317.844 241.507 317.761L241.117 316.106C241.117 316.023 240.893 315.952 240.668 315.952H232.968C232.744 315.952 232.567 316.023 232.579 316.106L232.791 317.761C232.803 317.844 233.004 317.926 233.24 317.926Z" fill="white"/>
<path d="M243.349 317.926H251.227C251.463 317.926 251.628 317.844 251.593 317.761L251.014 316.106C251.014 316.023 250.766 315.952 250.542 315.952H242.853C242.617 315.952 242.44 316.023 242.464 316.106L242.877 317.761C242.9 317.844 243.113 317.926 243.349 317.926Z" fill="white"/>
<path d="M253.459 317.926H261.336C261.572 317.926 261.726 317.844 261.69 317.761L260.911 316.105C260.843 316.048 260.764 316.004 260.678 315.978C260.593 315.951 260.504 315.943 260.415 315.952H252.726C252.49 315.952 252.325 316.023 252.36 316.105L252.974 317.761C252.998 317.844 253.234 317.926 253.459 317.926Z" fill="white"/>
<path d="M263.568 317.926H271.445C271.682 317.926 271.835 317.844 271.776 317.761L270.808 316.106C270.659 315.992 270.474 315.937 270.288 315.952H262.6C262.363 315.952 262.21 316.023 262.257 316.106L263.06 317.761C263.129 317.821 263.21 317.867 263.297 317.895C263.385 317.924 263.477 317.934 263.568 317.926Z" fill="white"/>
<path d="M273.689 317.926H281.578C281.826 317.926 281.956 317.844 281.897 317.761L280.716 316.106C280.563 315.992 280.375 315.937 280.185 315.952H272.496C272.26 315.952 272.119 316.023 272.178 316.106L273.181 317.761C273.324 317.878 273.505 317.937 273.689 317.926Z" fill="white"/>
<path d="M283.799 317.926H291.676C291.912 317.926 292.042 317.844 291.971 317.761L290.589 316.106C290.43 315.996 290.239 315.941 290.046 315.952H282.346C282.122 315.952 281.98 316.023 282.039 316.106L283.22 317.761C283.388 317.882 283.592 317.941 283.799 317.926Z" fill="white"/>
<path d="M149.212 321.616H157.136C157.345 321.632 157.551 321.568 157.715 321.438L159.782 318.612C159.852 318.518 159.711 318.447 159.475 318.447H151.834C151.631 318.434 151.431 318.493 151.267 318.612L148.905 321.438C148.822 321.545 148.964 321.616 149.212 321.616Z" fill="white"/>
<path d="M159.38 321.615H167.305C167.553 321.615 167.801 321.545 167.86 321.438L169.608 318.612C169.667 318.518 169.525 318.447 169.277 318.447H161.648C161.449 318.432 161.251 318.491 161.093 318.612L159.061 321.438C158.99 321.545 159.132 321.615 159.38 321.615Z" fill="white"/>
<path d="M169.56 321.616H177.485C177.733 321.616 177.969 321.545 178.016 321.438L179.433 318.612C179.433 318.518 179.327 318.447 179.091 318.447H171.45C171.355 318.438 171.259 318.448 171.168 318.476C171.076 318.504 170.992 318.551 170.918 318.612L169.218 321.438C169.159 321.545 169.312 321.616 169.56 321.616Z" fill="white"/>
<path d="M179.729 321.616H187.653C187.901 321.616 188.138 321.545 188.173 321.438L189.259 318.612C189.259 318.518 189.13 318.447 188.893 318.447H181.264C181.016 318.447 180.792 318.518 180.744 318.612L179.374 321.438C179.327 321.545 179.481 321.616 179.729 321.616Z" fill="white"/>
<path d="M190.57 318.612L189.519 321.438C189.519 321.545 189.661 321.616 189.909 321.616H197.834C198.082 321.616 198.306 321.545 198.33 321.438L199.085 318.612C199.085 318.518 198.944 318.447 198.707 318.447H191.066C190.83 318.447 190.641 318.518 190.57 318.612Z" fill="white"/>
<path d="M208.51 318.447H200.869C200.633 318.447 200.42 318.518 200.396 318.612L199.676 321.438C199.676 321.545 199.829 321.616 200.077 321.616H208.002C208.25 321.616 208.463 321.545 208.486 321.438L208.923 318.612C208.935 318.518 208.746 318.447 208.51 318.447Z" fill="white"/>
<path d="M218.312 318.447H210.718C210.482 318.447 210.269 318.518 210.258 318.612L209.868 321.438C209.868 321.545 210.045 321.616 210.293 321.616H218.218C218.466 321.616 218.666 321.545 218.666 321.438L218.784 318.612C218.749 318.518 218.56 318.447 218.312 318.447Z" fill="white"/>
<path d="M228.126 318.447H220.485C220.249 318.447 220.06 318.518 220.048 318.612L219.989 321.438C219.989 321.545 220.19 321.616 220.438 321.616H228.351C228.599 321.616 228.799 321.545 228.788 321.438L228.575 318.612C228.563 318.518 228.362 318.447 228.126 318.447Z" fill="white"/>
<path d="M238.531 321.616C238.779 321.616 238.968 321.545 238.944 321.438L238.401 318.612C238.401 318.518 238.176 318.447 237.928 318.447H230.299C230.051 318.447 229.874 318.518 229.874 318.612L230.146 321.438C230.146 321.545 230.358 321.616 230.606 321.616H238.531Z" fill="white"/>
<path d="M248.711 321.616C248.959 321.616 249.124 321.545 249.101 321.438L248.227 318.612C248.227 318.518 247.979 318.447 247.743 318.447H240.102C239.865 318.447 239.688 318.518 239.7 318.612L240.302 321.438C240.302 321.545 240.539 321.616 240.787 321.616H248.711Z" fill="white"/>
<path d="M257.545 318.447H249.916C249.668 318.447 249.502 318.518 249.526 318.612L250.447 321.438C250.447 321.545 250.707 321.616 250.955 321.616H258.879C259.127 321.616 259.293 321.545 259.257 321.438L258.076 318.612C257.958 318.518 257.781 318.447 257.545 318.447Z" fill="white"/>
<path d="M267.406 318.447H259.765C259.529 318.447 259.364 318.518 259.399 318.612L260.651 321.438C260.651 321.545 260.934 321.616 261.182 321.616H269.107C269.355 321.616 269.509 321.545 269.461 321.438L267.926 318.612C267.831 318.518 267.595 318.447 267.406 318.447Z" fill="white"/>
<path d="M279.216 321.616C279.464 321.616 279.618 321.545 279.547 321.438L277.693 318.612C277.54 318.488 277.345 318.429 277.15 318.447H269.509C269.272 318.447 269.119 318.518 269.178 318.612L270.749 321.438C270.821 321.505 270.907 321.556 271.001 321.586C271.095 321.617 271.194 321.627 271.292 321.616H279.216Z" fill="white"/>
<path d="M292.467 318.612C292.299 318.491 292.095 318.433 291.888 318.447H279.464C279.228 318.447 279.086 318.518 279.145 318.612L281.059 321.438C281.118 321.545 281.378 321.616 281.626 321.616H294.569C294.817 321.616 294.947 321.545 294.865 321.438L292.467 318.612Z" fill="white"/>
<path d="M294.994 322.207H287.023C286.775 322.207 286.633 322.278 286.704 322.384L288.96 325.482C289.134 325.619 289.353 325.686 289.574 325.671H297.841C298.101 325.671 298.242 325.588 298.148 325.482L295.573 322.384C295.407 322.26 295.202 322.197 294.994 322.207Z" fill="white"/>
<path d="M287.554 325.482L285.334 322.384C285.172 322.252 284.964 322.188 284.755 322.207H276.783C276.535 322.207 276.382 322.278 276.441 322.384L278.342 325.482C278.507 325.62 278.719 325.688 278.933 325.671H287.2C287.483 325.671 287.625 325.588 287.554 325.482Z" fill="white"/>
<path d="M266.225 322.384L267.772 325.482C267.772 325.588 268.079 325.671 268.339 325.671H276.606C276.866 325.671 277.031 325.588 276.961 325.482L275.106 322.384C275.047 322.278 274.799 322.207 274.551 322.207H266.568C266.284 322.207 266.131 322.278 266.225 322.384Z" fill="white"/>
<path d="M255.915 322.384L257.096 325.482C257.096 325.588 257.38 325.671 257.639 325.671H265.906C266.166 325.671 266.332 325.588 266.284 325.482L264.784 322.384C264.784 322.278 264.501 322.207 264.253 322.207H256.269C256.045 322.207 255.88 322.278 255.915 322.384Z" fill="white"/>
<path d="M255.679 325.482L254.498 322.384C254.498 322.278 254.226 322.207 253.978 322.207H246.007C245.759 322.207 245.581 322.278 245.605 322.384L246.432 325.482C246.432 325.588 246.692 325.671 246.951 325.671H255.218C255.596 325.671 255.726 325.588 255.679 325.482Z" fill="white"/>
<path d="M245.062 325.482L244.282 322.384C244.282 322.278 244.034 322.207 243.786 322.207H235.815C235.566 322.207 235.366 322.278 235.389 322.384L235.85 325.482C235.85 325.588 236.098 325.671 236.358 325.671H244.625C244.896 325.671 245.085 325.588 245.062 325.482Z" fill="white"/>
<path d="M225.126 322.384L225.233 325.482C225.233 325.588 225.445 325.671 225.705 325.671H233.972C234.232 325.671 234.433 325.588 234.421 325.482L233.996 322.384C233.996 322.278 233.771 322.207 233.523 322.207H225.54C225.315 322.207 225.115 322.278 225.126 322.384Z" fill="white"/>
<path d="M214.864 322.384L214.616 325.482C214.616 325.588 214.805 325.671 215.064 325.671H223.331C223.591 325.671 223.792 325.588 223.792 325.482L223.733 322.384C223.733 322.278 223.532 322.207 223.272 322.207H215.324C215.076 322.207 214.864 322.278 214.864 322.384Z" fill="white"/>
<path d="M204.601 322.384L203.987 325.482C203.987 325.588 204.164 325.671 204.424 325.671H212.691C212.95 325.671 213.163 325.588 213.175 325.482L213.47 322.384C213.47 322.278 213.281 322.207 213.033 322.207H205.061C204.813 322.207 204.613 322.278 204.601 322.384Z" fill="white"/>
<path d="M194.338 322.384L193.369 325.482C193.369 325.588 193.511 325.671 193.771 325.671H202.038C202.298 325.671 202.534 325.588 202.546 325.482L203.207 322.384C203.207 322.278 203.042 322.207 202.794 322.207H194.822C194.586 322.207 194.361 322.278 194.338 322.384Z" fill="white"/>
<path d="M191.952 325.482L192.968 322.384C192.968 322.278 192.826 322.207 192.578 322.207H184.595C184.347 322.207 184.11 322.278 184.063 322.384L182.74 325.482C182.74 325.588 182.87 325.671 183.13 325.671H191.397C191.681 325.671 191.917 325.588 191.952 325.482Z" fill="white"/>
<path d="M180.78 325.671C181.04 325.671 181.288 325.588 181.335 325.482L182.705 322.384C182.705 322.278 182.575 322.207 182.327 322.207H174.355C174.107 322.207 173.859 322.278 173.8 322.384L172.123 325.482C172.123 325.588 172.229 325.671 172.489 325.671H180.78Z" fill="white"/>
<path d="M170.706 325.482L172.442 322.384C172.442 322.278 172.336 322.207 172.088 322.207H164.116C163.907 322.188 163.7 322.252 163.537 322.384L161.506 325.482C161.435 325.588 161.589 325.671 161.848 325.671H170.115C170.222 325.683 170.329 325.673 170.431 325.64C170.533 325.607 170.626 325.553 170.706 325.482Z" fill="white"/>
<path d="M161.589 330.2H170.293C170.402 330.21 170.513 330.197 170.617 330.16C170.721 330.123 170.816 330.064 170.895 329.987L172.702 326.582C172.761 326.475 172.596 326.381 172.336 326.381H163.974C163.867 326.372 163.76 326.386 163.658 326.42C163.557 326.455 163.463 326.51 163.384 326.582L161.234 330.022C161.116 330.105 161.317 330.2 161.589 330.2Z" fill="white"/>
<path d="M164.588 335.201H173.729C173.846 335.212 173.965 335.196 174.075 335.155C174.185 335.114 174.285 335.049 174.367 334.965L176.127 331.217C176.127 331.087 176.009 330.992 175.737 330.992H167.021C166.909 330.982 166.795 330.997 166.689 331.036C166.583 331.074 166.487 331.136 166.407 331.217L164.258 334.965C164.128 335.095 164.305 335.201 164.588 335.201Z" fill="white"/>
<path d="M146.306 336.171H137.071C136.808 336.158 136.55 336.247 136.351 336.419L132.241 341.35C132.111 341.492 132.241 341.61 132.56 341.61H142.291C142.563 341.623 142.83 341.53 143.035 341.35L146.649 336.419C146.755 336.277 146.59 336.171 146.306 336.171Z" fill="white"/>
<path d="M158.246 336.171H149.011C148.884 336.163 148.757 336.18 148.637 336.223C148.517 336.266 148.407 336.332 148.314 336.419L144.771 341.35C144.665 341.492 144.771 341.61 145.137 341.61H154.857C154.988 341.618 155.12 341.599 155.244 341.554C155.368 341.51 155.481 341.44 155.577 341.35L158.612 336.419C158.754 336.277 158.53 336.171 158.246 336.171Z" fill="white"/>
<path d="M170.174 336.171H160.939C160.817 336.162 160.695 336.179 160.581 336.222C160.467 336.265 160.363 336.332 160.278 336.419L157.313 341.35C157.231 341.492 157.396 341.61 157.703 341.61H167.434C167.561 341.618 167.687 341.599 167.805 341.554C167.923 341.509 168.03 341.44 168.119 341.35L170.576 336.419C170.647 336.277 170.47 336.171 170.174 336.171Z" fill="white"/>
<path d="M184.902 336.171H172.926C172.643 336.171 172.348 336.277 172.289 336.419L169.927 341.35C169.856 341.492 170.045 341.61 170.34 341.61H183.012C183.307 341.61 183.603 341.492 183.65 341.35L185.409 336.419C185.386 336.277 185.197 336.171 184.902 336.171Z" fill="white"/>
<path d="M271.162 336.171H261.926C261.631 336.171 261.442 336.277 261.501 336.419L263.391 341.35C263.45 341.492 263.745 341.61 264.052 341.61H273.772C274.079 341.61 274.268 341.492 274.197 341.35L271.835 336.419C271.741 336.277 271.445 336.171 271.162 336.171Z" fill="white"/>
<path d="M259.222 336.171H247.199C246.916 336.171 246.703 336.277 246.739 336.419L247.92 341.35C247.92 341.492 248.227 341.61 248.534 341.61H261.194C261.501 341.61 261.702 341.492 261.643 341.35L259.824 336.419C259.789 336.277 259.517 336.171 259.222 336.171Z" fill="white"/>
<path d="M244.235 336.171H187.606C187.311 336.171 187.051 336.277 187.004 336.419L185.327 341.35C185.268 341.492 185.48 341.61 185.775 341.61H245.416C245.723 341.61 245.947 341.492 245.912 341.35L244.814 336.419C244.79 336.277 244.53 336.171 244.235 336.171Z" fill="white"/>
<path d="M186.98 330.992H178.217C177.945 330.992 177.674 331.087 177.627 331.217L175.914 334.965C175.855 335.095 176.032 335.201 176.328 335.201H185.468C185.752 335.201 186.024 335.095 186.071 334.965L187.405 331.217C187.453 331.087 187.264 330.992 186.98 330.992Z" fill="white"/>
<path d="M188.055 335.201H197.208C197.491 335.201 197.751 335.095 197.786 334.965L198.684 331.217C198.684 331.087 198.507 330.992 198.235 330.992H189.46C189.177 330.992 188.929 331.087 188.881 331.217L187.606 334.965C187.582 335.095 187.771 335.201 188.055 335.201Z" fill="white"/>
<path d="M199.794 335.201H208.947C209.23 335.201 209.478 335.095 209.49 334.965L209.951 331.217C209.951 331.087 209.762 330.992 209.49 330.992H200.715C200.444 330.992 200.196 331.087 200.172 331.217L199.333 334.965C199.298 335.095 199.511 335.201 199.794 335.201Z" fill="white"/>
<path d="M211.533 335.201H220.686C220.969 335.201 221.205 335.095 221.205 334.965V331.217C221.205 331.087 220.981 330.992 220.709 330.992H211.946C211.675 330.992 211.439 331.087 211.427 331.217L211.013 334.965C211.025 335.095 211.25 335.201 211.533 335.201Z" fill="white"/>
<path d="M223.272 335.201H232.425C232.708 335.201 232.921 335.095 232.909 334.965L232.508 331.217C232.508 331.087 232.26 330.992 231.988 330.992H223.213C222.942 330.992 222.717 331.087 222.717 331.217V334.965C222.753 335.095 222.989 335.201 223.272 335.201Z" fill="white"/>
<path d="M243.231 330.992H234.468C234.197 330.992 233.984 331.087 233.996 331.217L234.456 334.965C234.456 335.095 234.728 335.201 235.011 335.201H244.152C244.448 335.201 244.648 335.095 244.625 334.965L243.786 331.205C243.786 331.087 243.515 330.992 243.231 330.992Z" fill="white"/>
<path d="M255.892 335.201C256.175 335.201 256.376 335.095 256.328 334.965L255.053 331.205C255.053 331.075 254.758 330.98 254.486 330.98H245.723C245.44 330.98 245.239 331.075 245.274 331.205L246.172 334.953C246.172 335.083 246.455 335.19 246.751 335.19L255.892 335.201Z" fill="white"/>
<path d="M258.478 335.201H267.631C267.914 335.201 268.103 335.095 268.044 334.965L266.332 331.205C266.273 331.075 266.013 330.98 265.741 330.98H256.966C256.695 330.98 256.506 331.075 256.553 331.205L257.887 334.953C257.958 335.095 258.194 335.201 258.478 335.201Z" fill="white"/>
<path d="M270.217 335.201H279.37C279.653 335.201 279.83 335.095 279.748 334.965L277.61 331.205C277.528 331.124 277.43 331.062 277.322 331.023C277.214 330.985 277.099 330.97 276.984 330.98H268.221C267.938 330.98 267.772 331.075 267.82 331.205L269.591 334.953C269.65 335.095 269.934 335.201 270.217 335.201Z" fill="white"/>
<path d="M182.055 330.022L183.461 326.617C183.461 326.511 183.331 326.416 183.071 326.416H174.721C174.616 326.407 174.51 326.421 174.411 326.455C174.311 326.49 174.22 326.545 174.143 326.617L172.395 330.022C172.336 330.141 172.501 330.235 172.773 330.235H181.477C181.748 330.2 182.008 330.105 182.055 330.022Z" fill="white"/>
<path d="M183.969 330.2H192.661C192.932 330.2 193.18 330.105 193.216 329.987L194.231 326.582C194.231 326.475 194.078 326.381 193.818 326.381H185.468C185.209 326.381 184.961 326.475 184.913 326.582L183.555 330.022C183.555 330.105 183.697 330.2 183.969 330.2Z" fill="white"/>
<path d="M204.376 330.022L205.002 326.617C205.002 326.511 204.825 326.416 204.565 326.416H196.216C195.956 326.416 195.708 326.511 195.684 326.617L194.716 330.022C194.716 330.141 194.881 330.235 195.153 330.235H203.845C204.116 330.2 204.353 330.105 204.376 330.022Z" fill="white"/>
<path d="M215.537 330.022L215.773 326.617C215.773 326.511 215.572 326.416 215.312 326.416H206.951C206.691 326.416 206.467 326.511 206.455 326.617L205.876 330.022C205.876 330.141 206.065 330.235 206.337 330.235H215.041C215.312 330.2 215.537 330.105 215.537 330.022Z" fill="white"/>
<path d="M226.709 330.022L226.532 326.617C226.532 326.511 226.319 326.416 226.048 326.416H217.698C217.438 326.416 217.225 326.511 217.214 326.617L217.048 330.022C217.048 330.141 217.249 330.235 217.521 330.235H226.225C226.496 330.2 226.709 330.105 226.709 330.022Z" fill="white"/>
<path d="M237.881 330.022L237.314 326.617C237.314 326.511 237.066 326.416 236.807 326.416H228.433C228.173 326.416 227.961 326.511 227.973 326.617L228.197 330.022C228.197 330.141 228.433 330.235 228.705 330.235H237.397C237.68 330.2 237.881 330.105 237.881 330.022Z" fill="white"/>
<path d="M239.901 330.2H248.593C248.865 330.2 249.065 330.105 249.03 329.987L248.073 326.582C248.073 326.475 247.802 326.381 247.542 326.381H239.192C238.932 326.381 238.732 326.475 238.755 326.582L239.369 329.987C239.393 330.105 239.629 330.2 239.901 330.2Z" fill="white"/>
<path d="M251.085 330.2H259.789C260.06 330.2 260.238 330.105 260.19 329.987L258.844 326.582C258.844 326.475 258.549 326.381 258.289 326.381H249.939C249.668 326.381 249.49 326.475 249.526 326.582L250.53 329.987C250.565 330.105 250.872 330.2 251.085 330.2Z" fill="white"/>
<path d="M271.351 330.022L269.603 326.617C269.603 326.511 269.296 326.416 269.036 326.416H260.675C260.415 326.416 260.238 326.511 260.285 326.617L261.69 330.022C261.69 330.141 261.997 330.235 262.269 330.235H270.949C271.245 330.2 271.41 330.105 271.351 330.022Z" fill="white"/>
<path d="M282.511 330.022L280.397 326.582C280.315 326.51 280.22 326.455 280.116 326.421C280.013 326.386 279.904 326.373 279.795 326.381H271.422C271.162 326.381 270.996 326.475 271.056 326.582L272.851 329.987C272.933 330.063 273.03 330.122 273.135 330.158C273.241 330.195 273.353 330.209 273.465 330.2H282.157C282.429 330.2 282.594 330.105 282.511 330.022Z" fill="white"/>
<path d="M145.846 325.671H159.345C159.559 325.688 159.771 325.62 159.935 325.482L162.037 322.384C162.096 322.278 161.955 322.207 161.707 322.207H148.716C148.5 322.191 148.286 322.254 148.113 322.384L145.527 325.482C145.456 325.588 145.598 325.671 145.846 325.671Z" fill="white"/>
<path d="M142.102 330.2H159.026C159.139 330.209 159.253 330.194 159.361 330.158C159.468 330.121 159.567 330.063 159.652 329.987L161.86 326.582C161.931 326.475 161.777 326.381 161.518 326.381H145.267C145.037 326.368 144.81 326.439 144.629 326.582L141.795 329.987C141.689 330.105 141.83 330.2 142.102 330.2Z" fill="white"/>
<path d="M137.969 335.19H161.766C161.886 335.197 162.007 335.18 162.121 335.14C162.235 335.099 162.339 335.036 162.427 334.953L164.659 331.205C164.73 331.087 164.565 330.98 164.281 330.98H141.452C141.208 330.972 140.969 331.051 140.779 331.205L137.65 334.953C137.496 335.083 137.685 335.19 137.969 335.19Z" fill="white"/>
<path d="M302.352 330.98H279.535C279.264 330.98 279.098 331.087 279.169 331.205L281.378 334.953C281.463 335.036 281.565 335.101 281.677 335.141C281.789 335.182 281.908 335.199 282.027 335.19H305.824C306.108 335.19 306.261 335.083 306.143 334.953L303.025 331.205C302.834 331.053 302.596 330.974 302.352 330.98Z" fill="white"/>
<path d="M298.762 326.404H282.499C282.24 326.404 282.086 326.499 282.157 326.605L284.365 330.011C284.542 330.163 284.771 330.239 285.003 330.223H301.927C302.199 330.223 302.34 330.129 302.234 330.011L299.4 326.605C299.217 326.466 298.991 326.395 298.762 326.404Z" fill="white"/>
<path d="M282.653 336.171H273.772C273.718 336.171 273.666 336.184 273.619 336.21C273.571 336.235 273.531 336.271 273.501 336.315C273.471 336.359 273.452 336.41 273.445 336.463C273.439 336.516 273.446 336.57 273.465 336.62C274.121 338.204 274.862 339.751 275.685 341.255C275.773 341.347 275.88 341.418 275.998 341.463C276.117 341.508 276.244 341.526 276.37 341.515H286.208C286.503 341.515 286.68 341.397 286.598 341.255L283.869 336.809C283.737 336.609 283.556 336.446 283.343 336.334C283.13 336.223 282.893 336.166 282.653 336.171Z" fill="white"/>
<path d="M306.037 336.064H297.038C296.994 336.061 296.95 336.071 296.912 336.093C296.874 336.114 296.843 336.147 296.823 336.186C296.803 336.225 296.794 336.269 296.799 336.312C296.804 336.356 296.821 336.397 296.849 336.431C298.703 339.032 300.392 341.279 300.392 341.279C300.598 341.457 300.864 341.55 301.136 341.539H310.974C311.281 341.539 311.422 341.421 311.304 341.279C311.186 341.137 309.391 339.056 307.029 336.549C306.905 336.406 306.753 336.289 306.582 336.205C306.412 336.122 306.226 336.074 306.037 336.064Z" fill="white"/>
<path d="M294.699 335.934H285.369C285.086 335.934 284.956 336.1 285.086 336.313L286.787 339.068L287.153 339.671L288.168 341.326C288.264 341.416 288.378 341.486 288.502 341.531C288.626 341.575 288.757 341.594 288.889 341.586H298.726C299.022 341.586 299.187 341.468 299.081 341.326L297.9 339.671L297.475 339.068L295.502 336.313C295.403 336.196 295.28 336.102 295.142 336.037C295.003 335.971 294.852 335.937 294.699 335.934Z" fill="white"/>
<path d="M250.553 289.052L248.794 265.333H201.707L199.936 289.218C199.743 291.856 198.981 294.422 197.704 296.738H252.88C251.548 294.379 250.753 291.754 250.553 289.052Z" fill="#051351"/>
<path d="M262.777 296.738H187.807C186.822 296.738 186.023 297.537 186.023 298.523V303.737C186.023 304.724 186.822 305.523 187.807 305.523H262.777C263.762 305.523 264.56 304.724 264.56 303.737V298.523C264.56 297.537 263.762 296.738 262.777 296.738Z" fill="#071A6C"/>
<path d="M103.377 248.2V263.358C103.377 265.397 104.186 267.352 105.625 268.793C107.065 270.234 109.018 271.044 111.054 271.044H339.636C341.672 271.044 343.625 270.234 345.065 268.793C346.504 267.352 347.313 265.397 347.313 263.358V248.2H103.377Z" fill="#071A6C"/>
<path d="M339.636 102.811H111.054C109.018 102.811 107.065 103.621 105.625 105.062C104.186 106.504 103.377 108.459 103.377 110.497V248.2H347.313V110.497C347.313 108.459 346.504 106.504 345.065 105.062C343.625 103.621 341.672 102.811 339.636 102.811Z" fill="#051351"/>
<path d="M336.341 112.472H113.463V238.54H336.341V112.472Z" fill="#E3E7FA"/>
<path d="M322.228 90.408H128.45V238.646H322.228V90.408Z" fill="white"/>
<path d="M322.228 90.408H128.45V104.207H322.228V90.408Z" fill="#071A6C"/>
<path fill-rule="evenodd" clip-rule="evenodd" d="M136.315 97.3132C136.279 97.5355 136.181 97.7428 136.031 97.9108C135.881 98.0788 135.687 98.2006 135.47 98.2618C135.254 98.323 135.025 98.3211 134.809 98.2563C134.594 98.1915 134.402 98.0665 134.255 97.896C134.108 97.7255 134.013 97.5166 133.981 97.2938C133.948 97.071 133.98 96.8436 134.073 96.6383C134.165 96.4331 134.314 96.2585 134.502 96.1351C134.69 96.0117 134.909 95.9446 135.134 95.9417C135.472 95.9689 135.785 96.1281 136.006 96.3848C136.227 96.6415 136.338 96.9751 136.315 97.3132Z" fill="white"/>
<path fill-rule="evenodd" clip-rule="evenodd" d="M141.216 97.3132C141.18 97.5355 141.082 97.7428 140.932 97.9108C140.782 98.0788 140.588 98.2006 140.372 98.2618C140.155 98.323 139.926 98.3211 139.711 98.2563C139.495 98.1915 139.303 98.0665 139.156 97.896C139.009 97.7255 138.914 97.5166 138.882 97.2938C138.849 97.071 138.881 96.8436 138.974 96.6383C139.066 96.4331 139.215 96.2585 139.403 96.1351C139.591 96.0117 139.81 95.9446 140.035 95.9417C140.373 95.9689 140.686 96.1281 140.907 96.3848C141.128 96.6415 141.239 96.9751 141.216 97.3132Z" fill="white"/>
<path fill-rule="evenodd" clip-rule="evenodd" d="M146.176 97.3132C146.14 97.5355 146.042 97.7428 145.892 97.9108C145.743 98.0788 145.548 98.2006 145.332 98.2618C145.115 98.323 144.886 98.3211 144.671 98.2563C144.455 98.1915 144.263 98.0665 144.116 97.896C143.969 97.7255 143.874 97.5166 143.842 97.2938C143.81 97.071 143.842 96.8436 143.934 96.6383C144.026 96.4331 144.175 96.2585 144.363 96.1351C144.551 96.0117 144.771 95.9446 144.995 95.9417C145.332 95.9718 145.643 96.1318 145.864 96.3879C146.084 96.6439 146.196 96.9758 146.176 97.3132Z" fill="white"/>
<path d="M309.627 112.2H217.237V142.658H309.627V112.2Z" fill="#E3E7FA"/>
<path d="M309.627 146.915H217.237V172.975H309.627V146.915Z" fill="#0B28A8"/>
<path d="M309.627 181.5H138.89V203.209H309.627V181.5Z" fill="#889EFA"/>
<path d="M178.394 209.855H138.819V231.221H178.394V209.855Z" fill="#0B28A8"/>
<path d="M210.695 113.524H138.819V173.602H210.695V113.524Z" fill="#889EFA"/>
<path d="M309.627 210.422H184.441V231.788H309.627V210.422Z" fill="#E3E7FA"/>
<path fill-rule="evenodd" clip-rule="evenodd" d="M138.819 174.844L162.97 131.78L177.367 156.102L187.996 140.518L208.403 174.844H138.819Z" fill="white"/>
<path fill-rule="evenodd" clip-rule="evenodd" d="M198.093 128.233C198.047 129.033 197.768 129.803 197.29 130.446C196.812 131.089 196.156 131.578 195.404 131.852C194.652 132.126 193.836 132.174 193.056 131.989C192.277 131.804 191.57 131.394 191.02 130.811C190.471 130.228 190.104 129.496 189.966 128.707C189.827 127.917 189.923 127.104 190.24 126.369C190.558 125.633 191.084 125.006 191.754 124.566C192.423 124.127 193.206 123.893 194.007 123.894C195.122 123.931 196.178 124.408 196.943 125.221C197.709 126.033 198.122 127.116 198.093 128.233Z" fill="white"/>
<path d="M223.839 120.039H299.199" stroke="#071A6C" stroke-width="0.25" stroke-miterlimit="10"/>
<path d="M190.263 216.783H303.309" stroke="white" stroke-width="0.5" stroke-miterlimit="10"/>
<path d="M190.263 220.934H289.385" stroke="white" stroke-width="0.5" stroke-miterlimit="10"/>
<path d="M190.263 225.096H261.159" stroke="white" stroke-width="0.5" stroke-miterlimit="10"/>
<path d="M145.102 188.193H303.309" stroke="white" stroke-width="0.5" stroke-miterlimit="10"/>
<path d="M145.102 192.355H283.822" stroke="white" stroke-width="0.5" stroke-miterlimit="10"/>
<path d="M145.102 196.505H244.33" stroke="white" stroke-width="0.5" stroke-miterlimit="10"/>
<path d="M223.839 123.894H285.298" stroke="#071A6C" stroke-width="0.25" stroke-miterlimit="10"/>
<path d="M223.839 127.748H277.22" stroke="#071A6C" stroke-width="0.25" stroke-miterlimit="10"/>
<path d="M223.839 131.78H277.22" stroke="#071A6C" stroke-width="0.25" stroke-miterlimit="10"/>
<path d="M223.839 135.824H267.831" stroke="#071A6C" stroke-width="0.25" stroke-miterlimit="10"/>
<path d="M171.875 214.159H142.87V215.767H171.875V214.159Z" fill="white"/>
<path d="M171.875 217.233H142.87V218.841H171.875V217.233Z" fill="white"/>
<path d="M163.679 220.307H142.87V221.915H163.679V220.307Z" fill="white"/>
<path d="M157.585 223.381H142.87V224.989H157.585V223.381Z" fill="white"/>
<path d="M301.703 153.312H223.839V154.92H301.703V153.312Z" fill="white"/>
<path d="M301.703 157.604H223.839V159.212H301.703V157.604Z" fill="white"/>
<path d="M279.7 161.896H223.839V163.504H279.7V161.896Z" fill="white"/>
<path d="M263.332 166.188H223.839V167.796H263.332V166.188Z" fill="white"/>
<path d="M146.389 136.687H50.9052V215.991H146.389V136.687Z" fill="#E3E7FA"/>
<path d="M146.389 136.687H50.9052V151.101H146.389V136.687Z" fill="#0B28A8"/>
<path d="M120.844 162.346H76.462V203.588H120.844V162.346Z" fill="#051351"/>
<path d="M106.518 182.99L93.7637 175.695L93.8345 190.392L106.518 182.99Z" fill="white"/>
<path d="M60.5421 143.9C60.5421 144.134 60.4728 144.362 60.343 144.557C60.2133 144.751 60.0288 144.903 59.813 144.992C59.5972 145.082 59.3597 145.105 59.1307 145.06C58.9016 145.014 58.6911 144.901 58.526 144.736C58.3608 144.571 58.2483 144.36 58.2027 144.131C58.1572 143.901 58.1806 143.664 58.27 143.448C58.3593 143.231 58.5107 143.047 58.7049 142.917C58.8991 142.787 59.1275 142.718 59.3611 142.718C59.6743 142.718 59.9747 142.842 60.1962 143.064C60.4176 143.286 60.5421 143.586 60.5421 143.9Z" fill="white"/>
<path d="M65.2779 143.9C65.2779 144.134 65.2086 144.362 65.0789 144.557C64.9491 144.751 64.7646 144.903 64.5488 144.992C64.333 145.082 64.0956 145.105 63.8665 145.06C63.6374 145.014 63.427 144.901 63.2618 144.736C63.0966 144.571 62.9842 144.36 62.9386 144.131C62.893 143.901 62.9164 143.664 63.0058 143.448C63.0952 143.231 63.2466 143.047 63.4408 142.917C63.635 142.787 63.8633 142.718 64.0969 142.718C64.4101 142.718 64.7105 142.842 64.932 143.064C65.1535 143.286 65.2779 143.586 65.2779 143.9Z" fill="white"/>
<path d="M70.0256 143.9C70.0256 144.134 69.9563 144.362 69.8265 144.557C69.6968 144.751 69.5123 144.903 69.2965 144.992C69.0807 145.082 68.8433 145.105 68.6142 145.06C68.3851 145.014 68.1746 144.901 68.0095 144.736C67.8443 144.571 67.7318 144.36 67.6863 144.131C67.6407 143.901 67.6641 143.664 67.7535 143.448C67.8429 143.231 67.9942 143.047 68.1884 142.917C68.3827 142.787 68.611 142.718 68.8446 142.718C69.1578 142.718 69.4582 142.842 69.6797 143.064C69.9012 143.286 70.0256 143.586 70.0256 143.9Z" fill="white"/>
<path d="M386.233 161.016L290.915 161.449L291.22 228.668L386.537 228.235L386.233 161.016Z" fill="white"/>
<path d="M386.244 161.017L290.927 161.45L290.993 176.159L386.311 175.726L386.244 161.017Z" fill="#889EFA"/>
<path d="M300.84 169.038C300.808 169.396 300.643 169.73 300.377 169.973C300.112 170.215 299.765 170.35 299.405 170.35C299.046 170.35 298.699 170.215 298.434 169.973C298.168 169.73 298.003 169.396 297.971 169.038C298.003 168.679 298.168 168.346 298.434 168.103C298.699 167.861 299.046 167.726 299.405 167.726C299.765 167.726 300.112 167.861 300.377 168.103C300.643 168.346 300.808 168.679 300.84 169.038Z" fill="white"/>
<path d="M306.297 169.014C306.297 169.3 306.212 169.579 306.054 169.816C305.896 170.053 305.671 170.238 305.407 170.347C305.144 170.456 304.854 170.485 304.575 170.429C304.295 170.373 304.039 170.236 303.837 170.034C303.636 169.833 303.498 169.576 303.443 169.296C303.387 169.016 303.416 168.726 303.525 168.462C303.634 168.199 303.818 167.973 304.055 167.815C304.292 167.656 304.571 167.572 304.856 167.572C305.238 167.572 305.604 167.724 305.875 167.994C306.145 168.265 306.297 168.632 306.297 169.014Z" fill="white"/>
<path d="M311.753 168.979C311.755 169.265 311.673 169.545 311.516 169.783C311.359 170.022 311.135 170.209 310.872 170.32C310.609 170.431 310.319 170.461 310.038 170.407C309.758 170.353 309.5 170.216 309.298 170.015C309.095 169.814 308.956 169.557 308.9 169.276C308.843 168.996 308.871 168.706 308.98 168.441C309.089 168.177 309.273 167.951 309.51 167.792C309.748 167.633 310.027 167.548 310.312 167.548C310.692 167.548 311.057 167.698 311.327 167.966C311.597 168.234 311.75 168.598 311.753 168.979Z" fill="white"/>
<path d="M375.279 192.426H339.967V194.542H375.279V192.426Z" fill="#0B28A8"/>
<path d="M375.279 196.446H339.967V198.563H375.279V196.446Z" fill="#0B28A8"/>
<path d="M371.275 200.478H339.967V202.595H371.275V200.478Z" fill="#0B28A8"/>
<path d="M367.024 204.498H339.967V206.615H367.024V204.498Z" fill="#0B28A8"/>
<path d="M359.583 208.518H339.967V210.635H359.583V208.518Z" fill="#0B28A8"/>
<path d="M335.326 189.198H301.962V213.697H335.326V189.198Z" fill="#071A6C"/>
<path fill-rule="evenodd" clip-rule="evenodd" d="M301.962 213.863L312.414 196.304L318.638 206.213L323.232 199.863L332.066 213.863H301.962Z" fill="white"/>
<path fill-rule="evenodd" clip-rule="evenodd" d="M327.637 195.228C327.64 195.58 327.537 195.925 327.344 196.218C327.15 196.511 326.873 196.741 326.549 196.876C326.225 197.012 325.868 197.048 325.523 196.98C325.178 196.912 324.862 196.743 324.613 196.494C324.365 196.245 324.196 195.928 324.128 195.583C324.06 195.238 324.096 194.88 324.231 194.556C324.367 194.231 324.596 193.954 324.889 193.76C325.182 193.566 325.526 193.464 325.878 193.466C326.343 193.47 326.789 193.656 327.119 193.986C327.448 194.316 327.634 194.762 327.637 195.228Z" fill="white"/>
<path d="M266.166 108.617C279.531 108.617 290.365 97.77 290.365 84.3895C290.365 71.0091 279.531 60.162 266.166 60.162C252.802 60.162 241.968 71.0091 241.968 84.3895C241.968 97.77 252.802 108.617 266.166 108.617Z" fill="#889EFA"/>
<path d="M112.376 299.812C125.956 299.812 136.965 288.79 136.965 275.194C136.965 261.598 125.956 250.577 112.376 250.577C98.7965 250.577 87.7878 261.598 87.7878 275.194C87.7878 288.79 98.7965 299.812 112.376 299.812Z" fill="#889EFA"/>
<path d="M351.429 300.421C362.125 289.713 362.125 272.351 351.429 261.643C340.734 250.935 323.393 250.935 312.697 261.643C302.002 272.351 302.002 289.713 312.697 300.421C323.393 311.129 340.734 311.129 351.429 300.421Z" fill="white"/>
<path d="M274.138 79.1633C270.111 74.4337 266.343 79.3998 266.343 79.3998C266.343 79.3998 262.576 74.4219 258.537 79.1633C254.498 83.9047 264.206 90.9874 266.343 91.6731C268.481 90.9755 278.035 83.822 274.138 79.1633Z" fill="white"/>
<path d="M340.05 281.993C339.821 281.88 339.628 281.705 339.493 281.487C339.358 281.27 339.287 281.019 339.287 280.763C339.287 280.508 339.358 280.257 339.493 280.04C339.628 279.822 339.821 279.647 340.05 279.534C340.05 279.167 339.904 278.815 339.645 278.555C339.386 278.296 339.034 278.15 338.668 278.15H338.444L335.089 278.233C335.459 276.729 335.61 275.18 335.538 273.633C335.278 272.037 333.117 271.328 333.082 273.113C333.13 273.855 333.007 274.599 332.722 275.285C332.438 275.972 331.999 276.584 331.44 277.074C330.813 277.76 330.269 278.518 329.822 279.333C329.708 279.547 329.651 279.787 329.657 280.03V286.805C329.655 286.893 329.671 286.981 329.704 287.063C329.736 287.144 329.785 287.219 329.846 287.281C329.908 287.344 329.981 287.394 330.062 287.428C330.143 287.462 330.23 287.479 330.318 287.479H338.668C338.847 287.493 339.026 287.468 339.195 287.408C339.364 287.348 339.519 287.253 339.649 287.129C339.779 287.006 339.882 286.856 339.951 286.69C340.02 286.525 340.053 286.346 340.05 286.167C340.05 285.54 339.247 285.304 339.247 285.304C339.496 285.278 339.728 285.161 339.897 284.976C340.067 284.791 340.163 284.55 340.168 284.299C340.188 284.169 340.18 284.036 340.145 283.909C340.111 283.782 340.049 283.664 339.966 283.562C339.882 283.461 339.778 283.378 339.66 283.319C339.542 283.261 339.413 283.228 339.282 283.223C339.512 283.11 339.706 282.935 339.841 282.718C339.977 282.5 340.049 282.249 340.05 281.993Z" fill="#071A6C"/>
<path d="M327.755 279.534H324.838C324.356 279.534 323.964 279.925 323.964 280.409V288.071C323.964 288.554 324.356 288.946 324.838 288.946H327.755C328.238 288.946 328.629 288.554 328.629 288.071V280.409C328.629 279.925 328.238 279.534 327.755 279.534Z" fill="#071A6C"/>
<path d="M114.388 282.382L117.875 268.336H119.329L115.834 282.382H114.388ZM120.449 280.285V278.537L123.889 276.432L120.449 274.223V272.523L125.025 275.574V277.25L120.449 280.285Z" fill="white"/>
</g>
<defs>
<clipPath id="clip0_18_6678">
<rect width="414" height="368" fill="white" transform="translate(0.5 0.131348)"/>
</clipPath>
</defs>
</svg>
