<svg width="91" height="90" viewBox="0 0 91 90" fill="none" xmlns="http://www.w3.org/2000/svg">
<g clip-path="url(#clip0_18_6293)">
<path d="M45.5 90C70.3528 90 90.5 69.8528 90.5 45C90.5 20.1472 70.3528 0 45.5 0C20.6472 0 0.5 20.1472 0.5 45C0.5 69.8528 20.6472 90 45.5 90Z" fill="#3A5BA0"/>
<path d="M89.6675 36.3628L61.5 12L60 14.5C44 8 31.5361 10.754 19.5 23C4.5 42 16 61.5 16 61.5L24.5 69L29.5 77.5L36.8628 89.1675C51.0573 91.9299 66.3253 87.8143 77.3199 76.8198C88.3143 65.8253 92.4299 50.5571 89.6675 36.3628Z" fill="#1F4690"/>
<path d="M38.8618 44.8514C38.8618 41.1852 41.8339 38.2132 45.5 38.2132L53.0054 36.3278L45.5 23.4231H41.5498L40.4861 28.429C39.4213 28.7538 38.4007 29.1797 37.4347 29.6948L33.1412 26.906L27.5547 32.4926L30.3434 36.7861C29.8283 37.7521 29.4024 38.7725 29.0777 39.8375L24.0717 40.9012V48.8016L29.0777 49.8653C29.4024 50.9301 29.8283 51.9505 30.3434 52.9166L27.5547 57.2102L33.1412 62.7966L37.4347 60.0078C38.4007 60.5229 39.4211 60.9488 40.4861 61.2736L41.5498 66.2795H45.5L52.0977 55.4332L45.5 51.4896C41.8339 51.4896 38.8618 48.5175 38.8618 44.8514Z" fill="white"/>
<path d="M50.5139 61.2737C51.5787 60.9489 52.5993 60.523 53.5653 60.008L57.8588 62.7967L63.4453 57.2103L60.6566 52.9168C61.1717 51.9508 61.5976 50.9304 61.9223 49.8654L66.9283 48.8017V40.9013L61.9223 39.8376C61.5976 38.7728 61.1717 37.7522 60.6566 36.7862L63.4453 32.4927L57.8588 26.9062L53.5653 29.6949C52.5993 29.1798 51.5789 28.7539 50.5139 28.4292L49.4502 23.4232H45.5V38.2133C49.1661 38.2133 52.1382 41.1854 52.1382 44.8515C52.1382 48.5176 49.1661 51.4896 45.5 51.4896V66.2796H49.4502L50.5139 61.2737Z" fill="#E0E0E0"/>
<path d="M33.1824 71.1122L34.446 68.8671L24.0659 68.7681L29.5364 77.5901L30.791 75.3609C35.4233 77.5893 40.4617 78.7023 45.5 78.7026L51.2903 76.2951L45.5 73.8426C41.2861 73.8424 37.0723 72.9327 33.1824 71.1122Z" fill="#FFE5B4"/>
<path d="M75.1265 28.4314L71.5223 32.0356C76.8484 42.8692 75.0107 56.3611 66.0103 65.3615C60.3554 71.0164 52.9276 73.8431 45.5 73.8426V78.7024C54.1732 78.7029 62.8466 75.4035 69.4495 68.8006C80.3654 57.8847 82.2582 41.3089 75.1265 28.4314Z" fill="#FFA500"/>
<path d="M21.5505 20.9018C10.6346 31.8179 8.7418 48.3937 15.8737 61.2712L19.4779 57.667C14.1518 46.8335 15.9895 33.3415 24.9899 24.3411C30.6446 18.6862 38.0724 15.8595 45.5 15.86L52.3801 13.6726L45.5 11C36.8268 10.9995 28.1534 14.2991 21.5505 20.9018Z" fill="#FFE5B4"/>
<path d="M57.8176 18.5904L56.554 20.8355L66.9341 20.9346L61.4637 12.1125L60.209 14.3417C55.5767 12.1133 50.5384 11.0003 45.5 11V15.86C49.714 15.8602 53.9278 16.7699 57.8176 18.5904Z" fill="#FFA500"/>
</g>
<defs>
<clipPath id="clip0_18_6293">
<rect width="90" height="90" fill="white" transform="translate(0.5)"/>
</clipPath>
</defs>
</svg>
