<svg width="91" height="90" viewBox="0 0 91 90" fill="none" xmlns="http://www.w3.org/2000/svg">
<path d="M45.5 90C70.3528 90 90.5 69.8528 90.5 45C90.5 20.1472 70.3528 0 45.5 0C20.6472 0 0.5 20.1472 0.5 45C0.5 69.8528 20.6472 90 45.5 90Z" fill="#3A5BA0"/>
<path d="M64.5 20L52.5 15H46.5V12L23 69.5L38.8418 89.5089C41.0146 89.8311 43.2375 90 45.5 90C70.3528 90 90.5 69.8528 90.5 45C90.5 43.7982 90.4517 42.6076 90.3592 41.4295L72.5 28L64.5 20Z" fill="#1F4690"/>
<path d="M53.8926 68.8747C55.4241 68.4125 56.8918 67.8063 58.281 67.0731L64.4561 71.0424L72.4907 63.0909L68.4799 56.9796C69.2207 55.6048 69.8333 54.1523 70.3003 52.6366L77.5 51.1225V39.8774L70.3003 38.3633C69.8333 36.8474 69.2207 35.3951 68.4799 34.0202L72.4907 27.9089L64.4561 19.9574L58.281 23.9267C56.8918 23.1935 55.4241 22.5873 53.8926 22.1251L52.3627 15H46.6815L39.6785 25.2346L46.6815 36.0514C51.9543 36.0514 56.2286 40.2817 56.2286 45.5C56.2286 50.7183 51.9542 54.9484 46.6815 54.9484L38.5 64.1425L46.6815 76H52.3627L53.8926 68.8747Z" fill="#E0E0E0"/>
<path d="M15.6302 45.4615C15.6302 62.3287 27.1155 76.0023 44.2469 76.0023L46.6493 73.0814V61.1505L44.4466 58.4712L46.6493 55.6427V35.2803L44.4466 32.4578L46.6493 29.7724V17.8417L45.021 14.9209C27.8897 14.9207 15.6302 28.5944 15.6302 45.4615Z" fill="#FFE5B4"/>
<path d="M44.0677 72.9634C42.6136 71.732 41.1731 69.5384 39.9449 66.6052C39.1956 64.8126 38.5532 62.8264 38.0276 60.69C40.8094 60.9938 43.7015 61.1507 46.6495 61.1507V55.6429C43.293 55.6429 40.0263 55.4275 36.9478 55.0136C36.5275 51.9826 36.3087 48.7663 36.3087 45.4616C36.3087 42.1569 36.5275 38.9406 36.9478 35.9096C40.0263 35.4957 43.293 35.2803 46.6495 35.2803V29.7725C43.7015 29.7725 40.8096 29.9294 38.0276 30.2332C38.5532 28.0968 39.1956 26.1106 39.9449 24.318C41.1731 21.3848 42.6136 19.191 44.0677 17.9598C44.9182 17.883 45.779 17.8417 46.6495 17.8417V12C27.9098 12 12.6637 27.011 12.6637 45.4616C12.6637 63.9122 27.9097 78.9232 46.6495 78.9232V73.0814C45.779 73.0814 44.9182 73.0402 44.0677 72.9634ZM18.7168 48.0036C18.6389 47.1661 18.597 46.3186 18.597 45.4616C18.597 44.6046 18.6389 43.7571 18.7168 42.9196C19.9675 41.488 22.1955 40.0697 25.1746 38.8605C26.9953 38.1227 29.0125 37.4901 31.1825 36.9727C30.8739 39.7116 30.7146 42.5591 30.7146 45.4616C30.7146 48.3641 30.8739 51.2114 31.1825 53.9505C29.0126 53.433 26.9953 52.8005 25.1746 52.0627C22.1955 50.8535 19.9675 49.4352 18.7168 48.0036ZM20.7798 56.1415C21.4941 56.4942 22.2487 56.8324 23.0439 57.155C25.7359 58.2482 28.794 59.1311 32.0997 59.7871C32.766 63.0418 33.6627 66.0527 34.7731 68.7032C35.1007 69.486 35.4442 70.2291 35.8024 70.9325C29.0434 68.1316 23.6243 62.7961 20.7798 56.1415ZM34.7729 22.22C33.6625 24.8704 32.7658 27.8814 32.0996 31.1361C28.7939 31.7921 25.7358 32.6749 23.0438 33.7682C22.2487 34.0908 21.4939 34.429 20.7796 34.7817C23.6243 28.127 29.0432 22.7917 35.8021 19.9909C35.4441 20.694 35.1006 21.4372 34.7729 22.22Z" fill="#FFA500"/>
</svg>
