<svg width="91" height="90" viewBox="0 0 91 90" fill="none" xmlns="http://www.w3.org/2000/svg">
<path d="M45.5 90C70.3528 90 90.5 69.8528 90.5 45C90.5 20.1472 70.3528 0 45.5 0C20.6472 0 0.5 20.1472 0.5 45C0.5 69.8528 20.6472 90 45.5 90Z" fill="#3A5BA0"/>
<path d="M90.5 45C90.5 37.3546 88.5909 30.1558 85.2271 23.8505L73 16L15 59L30 74V77L34.6027 88.6684C38.0921 89.5365 41.7417 90 45.5 90C70.3529 90 90.5 69.8528 90.5 45Z" fill="#1F4690"/>
<path d="M37.0549 62.1054L34.265 74.615H45.7626L50.9145 68.3153L45.7626 59.2255L37.0549 62.1054Z" fill="#E0E0E0"/>
<path d="M54.4702 62.1054L57.2601 74.615H45.7626V59.2255L54.4702 62.1054Z" fill="#C0C0C9"/>
<path d="M21.5651 18.7222C19.3373 18.7222 17.5315 20.5281 17.5315 22.7558V54.5885C17.5315 56.8161 19.3375 58.6221 21.5651 58.6221H45.7625L57.2142 35.6906L45.7625 18.7222H21.5651Z" fill="#FFE5B4"/>
<path d="M69.96 18.7222H45.7626V58.6221H69.96C72.1877 58.6221 73.9936 56.8161 73.9936 54.5885V22.756C73.9936 20.5281 72.1877 18.7222 69.96 18.7222Z" fill="#FFCC7B"/>
<path d="M64.2818 46.7679V43.9112L62.4717 43.5266C62.3542 43.1416 62.2003 42.7727 62.0139 42.4233L63.0223 40.8708L61.0023 38.8507L59.4499 39.8591C59.1005 39.6728 58.7316 39.5188 58.3465 39.4014L57.9618 37.5912H55.1051L54.7204 39.4014C54.3354 39.5188 53.9664 39.6728 53.6171 39.8591L52.0647 38.8507L50.0447 40.8708L51.053 42.4233C50.8667 42.7727 50.7127 43.1416 50.5953 43.5266L48.7852 43.9112V46.7679L50.5953 47.1525C50.7127 47.5375 50.8667 47.9064 51.053 48.2558L50.0447 49.8084L52.0647 51.8284L53.6171 50.82C53.9664 51.0063 54.3354 51.1603 54.7204 51.2777L55.1051 53.0879H57.9618L58.3465 51.2777C58.7316 51.1603 59.1005 51.0063 59.4499 50.82L61.0023 51.8284L63.0223 49.8084L62.0139 48.2558C62.2003 47.9064 62.3542 47.5375 62.4717 47.1525L64.2818 46.7679ZM56.5335 47.7397C55.2079 47.7397 54.1333 46.6651 54.1333 45.3395C54.1333 44.0138 55.2079 42.9392 56.5335 42.9392C57.8592 42.9392 58.9338 44.0138 58.9338 45.3395C58.934 46.6651 57.8592 47.7397 56.5335 47.7397Z" fill="#40404C"/>
<path d="M45.2717 26.1152L42.9807 27.6033C42.4653 27.3284 41.9207 27.1013 41.3526 26.9279L40.7849 24.2568H36.5693L36.0016 26.9279C35.4335 27.1011 34.8889 27.3284 34.3735 27.6033L32.0825 26.1152L29.1017 29.0961L30.5897 31.3872C30.3148 31.9026 30.0877 32.4472 29.9143 33.0153L27.2433 33.5828V37.7985L29.9143 38.3661C30.0876 38.9343 30.3148 39.4789 30.5897 39.9943L29.1017 42.2852L32.0825 45.2661L34.3735 43.778C34.8889 44.0529 35.4335 44.28 36.0016 44.4534L36.5693 47.1245H40.7849L41.3526 44.4534C41.9207 44.2802 42.4653 44.0529 42.9807 43.778L45.2717 45.2661L45.7625 44.7752L46.8346 35.6905L45.7625 26.6061L45.2717 26.1152ZM38.6771 39.2328C36.7208 39.2328 35.1351 37.6469 35.1351 35.6906C35.1351 33.7344 36.721 32.1485 38.6771 32.1485C40.6334 32.1485 42.2192 33.7344 42.2192 35.6906C42.2192 37.6469 40.6334 39.2328 38.6771 39.2328Z" fill="#5B5B6D"/>
<path d="M46.7647 39.9942C47.0396 39.4788 47.2667 38.9343 47.4401 38.3661L50.1111 37.7984V33.5828L47.4401 33.0153C47.2669 32.447 47.0396 31.9026 46.7647 31.3872L48.2527 29.0961L45.7626 26.6061V44.7753L48.2527 42.2852L46.7647 39.9942Z" fill="#40404C"/>
<path d="M21.5601 57.7136C20.0827 57.7136 18.8808 56.5116 18.8808 55.0342V23.2513C18.8808 21.774 20.0827 20.572 21.5601 20.572H45.7626L50.6745 18.697L45.7626 16H19.9812C16.954 16 14.5 18.454 14.5 21.4812V56.8042C14.5 59.8314 16.954 62.2854 19.9812 62.2854H45.7626L51.2145 60.0955L45.7626 57.7136H21.5601Z" fill="white"/>
<path d="M71.544 16H45.7626V20.572H69.9651C71.4424 20.572 72.6444 21.774 72.6444 23.2513V55.0342C72.6444 56.5116 71.4424 57.7136 69.9651 57.7136H45.7626V62.2856H71.544C74.5712 62.2856 77.0252 59.8316 77.0252 56.8044V21.4812C77.0252 18.454 74.5712 16 71.544 16Z" fill="#E0E0E0"/>
<path d="M57.7905 70.7902H45.7627V77H61.394V74.3937C61.394 72.4035 59.7807 70.7902 57.7905 70.7902Z" fill="#E0E0E0"/>
<path d="M30.1313 74.3936V76.9999H45.7626V70.7901H33.7349C31.7446 70.7901 30.1313 72.4034 30.1313 74.3936Z" fill="white"/>
</svg>
