<svg width="91" height="91" viewBox="0 0 91 91" fill="none" xmlns="http://www.w3.org/2000/svg">
<path d="M45.5 90C70.3528 90 90.5 69.8528 90.5 45C90.5 20.1472 70.3528 0 45.5 0C20.6472 0 0.5 20.1472 0.5 45C0.5 69.8528 20.6472 90 45.5 90Z" fill="#3A5BA0"/>
<path d="M90.4999 47.2531C90.4999 44.2807 90.1394 41.3794 89.4547 38.578L69 14H21.5V22L36 89C37.448 89.105 40.5197 90 42 90C67.5 92 90.4999 70.8616 90.4999 47.2531Z" fill="#1F4690"/>
<path d="M41.2931 47C38.2366 46.9972 37.4318 47.8736 37.4318 47.8736L35.855 49.7726L38.2162 58.6246L52.6306 56.9451L58.9149 50.7284L52.6306 47.0104L41.2931 47Z" fill="#FFC1A6"/>
<path d="M65.9833 49.6908C65.9852 48.2177 64.3142 47.0216 62.8413 47.0197L52.6306 47.0104V56.9451L59.5138 56.1431C63.0821 56.1478 66.5923 52.9881 65.9833 49.6908Z" fill="#F9A991"/>
<path d="M44.3748 55.1257C42.0369 55.1236 39.7598 52.791 39.4651 52.4602C38.3598 51.2193 37.6214 49.6367 37.4302 47.8743L22.1113 58.4124L33.1271 71.4129L39.805 65.6317L52.6304 65.6245L59.954 59.6437L52.6304 55.156C48.6867 55.1414 44.4277 55.1257 44.3748 55.1257Z" fill="#FFDCC0"/>
<path d="M71.0807 62.8581L77.3341 58.075C79.398 56.4342 81.0848 52.8039 79.2679 50.0128C77.8992 47.9103 73.9935 46.5381 70.4407 48.9667L64.6753 53.3549C63.117 54.5346 61.2157 55.1743 59.2615 55.1804H59.2311C59.2311 55.1804 56.049 55.1686 52.6303 55.1562V65.6247L59.2216 65.621C63.4249 65.5015 68.1237 64.9334 71.0807 62.8581Z" fill="#FFC1A6"/>
<path d="M39.3698 69.9982L32.0771 76.6932C23.5489 73.0671 16.3688 66.8853 11.5 59.1076L26.3172 52.0364L39.3698 69.9982Z" fill="#FFA500"/>
<path d="M69.5 24.7037L58.7963 24.7037L58.7963 14L69.5 14L69.5 24.7037Z" fill="#7DFFE6"/>
<path d="M47.4778 43L47.4778 38.3006L66.2015 38.3006L66.2015 29.4447L62.0947 29.4447L62.0947 34.1938L47.4778 34.1938L47.4778 29.4447L45.4243 29.4447L43.106 35.7592L45.4243 43L47.4778 43Z" fill="#FFF085"/>
<path d="M43.3709 38.3006L43.3709 43L45.4243 43L45.4243 29.4447L43.3709 29.4447L43.3709 34.1938L28.754 34.1938L28.754 29.4447L24.6471 29.4447L24.6471 38.3006L43.3709 38.3006Z" fill="#FFD05A"/>
<path d="M50.7761 14L45.4243 14L42.0169 19.3519L45.4243 24.7037L50.7761 24.7037L50.7761 14Z" fill="#FFC136"/>
<path d="M45.4243 24.7037L40.0724 24.7037L40.0724 14L45.4243 14L45.4243 24.7037Z" fill="#FF8E12"/>
<path d="M32.0524 24.7037L21.3486 24.7037L21.3486 14L32.0524 14L32.0524 24.7037Z" fill="#20E0D2"/>
</svg>
