<svg width="91" height="91" viewBox="0 0 91 91" fill="none" xmlns="http://www.w3.org/2000/svg">
<path d="M45.5 90C70.3528 90 90.5 69.8528 90.5 45C90.5 20.1472 70.3528 0 45.5 0C20.6472 0 0.5 20.1472 0.5 45C0.5 69.8528 20.6472 90 45.5 90Z" fill="#3A5BA0"/>
<path d="M90.5 47.2531C90.5 44.2807 90.1394 41.3794 89.4547 38.578L67 14L19 64L36 89C37.448 89.105 40.5197 90 42 90C67.5 92 90.5 70.8616 90.5 47.2531Z" fill="#1F4690"/>
<path d="M19.0154 14V63.6102L28.1018 67.2295L31.405 76H42.6685L57.8989 45.8588L42.6685 14H19.0154Z" fill="white"/>
<path d="M42.6684 14H66.3215V75.9998H42.6684V14Z" fill="#E0E0E0"/>
<path d="M31.4051 63.6102H19.0154L31.4051 76V63.6102Z" fill="#FFA500"/>
<path d="M33.1685 26.6131L42.884 29.767L44.7235 20.2585L42.884 16.8977C37.5182 16.8977 33.1685 21.2474 33.1685 26.6131Z" fill="#FFD05A"/>
<path d="M47.7277 30.5889L46.872 17.7534C45.4713 17.1656 44.2551 16.8977 42.5935 16.8977V29.1422L47.7277 30.5889Z" fill="#FFAC27"/>
<path d="M33.1808 26.613C33.1808 31.6444 37.5621 35.723 42.5935 35.723L47.5569 29.5703L42.2908 26.613H33.1808Z" fill="#F44271"/>
<path d="M46.872 17.7534L42.5935 26.7188V35.7231C48.2646 35.7231 52.8619 31.6918 52.8619 26.7188C52.8619 23.1499 50.3051 19.2105 46.872 17.7534Z" fill="#3D3793"/>
<path d="M27.8652 65.0039H42.4619L44.0594 62.8594L42.4619 60.715H27.8652V65.0039Z" fill="#777787"/>
<path d="M42.4619 60.715H45.6566V65.0039H42.4619V60.715Z" fill="#5B5B6D"/>
<path d="M27.8652 56.0375H42.4619L45.5192 53.893L42.4619 51.7485H27.8652V56.0375Z" fill="#777787"/>
<path d="M42.4619 51.7485H48.5762V56.0375H42.4619V51.7485Z" fill="#5B5B6D"/>
<path d="M27.8652 47.0711H42.4619L49.007 44.6139L42.4619 42.1568H27.8652V47.0711Z" fill="#FFD483"/>
<path d="M42.4619 42.1568H57.0585V47.0712H42.4619V42.1568Z" fill="#FFA500"/>
<path d="M61.5725 45.8588C61.5725 43.2359 63.6988 41.1095 66.3218 41.1095L71.6914 39.7606L66.3218 30.5281H63.4956L62.7345 34.1095C61.9726 34.3418 61.2425 34.6465 60.5515 35.015L57.4796 33.0198L53.4828 37.0165L55.4779 40.0883C55.1094 40.7794 54.8047 41.5094 54.5724 42.2714L50.991 43.0325V48.6848L54.5724 49.4459C54.8047 50.2078 55.1094 50.9379 55.4779 51.6289L53.4828 54.7008L57.4796 58.6975L60.5515 56.7023C61.2425 57.0708 61.9727 57.3755 62.7345 57.6078L63.4956 61.1892H66.3218L71.042 53.4292L66.3218 50.6078C63.6988 50.6081 61.5725 48.4817 61.5725 45.8588Z" fill="#9D9DAA"/>
<path d="M69.909 57.6082C70.671 57.3759 71.401 57.0712 72.0921 56.7027L75.1639 58.6978L79.1606 54.7011L77.1654 51.6293C77.5339 50.9382 77.8386 50.2082 78.0709 49.4463L81.6523 48.6852V43.0329L78.0709 42.2718C77.8386 41.5098 77.5339 40.7798 77.1654 40.0887L79.1606 37.0169L75.1639 33.0202L72.0921 35.0154C71.401 34.6468 70.671 34.3422 69.909 34.1098L69.1479 30.5284H66.3218V41.1099C68.9447 41.1099 71.0711 43.2363 71.0711 45.8592C71.0711 48.4821 68.9447 50.6085 66.3218 50.6085V61.1899H69.1479L69.909 57.6082Z" fill="#777787"/>
</svg>
